<svg width="104" height="104" viewBox="0 0 104 104" fill="none" xmlns="http://www.w3.org/2000/svg">
<path d="M24.7778 27.7778C26.5926 20.5185 34.5778 6 52.0001 6C69.4223 6 77.4075 20.5185 79.2223 27.7778" stroke="#E57B83" stroke-width="10.9231" stroke-linecap="round"/>
<path fill-rule="evenodd" clip-rule="evenodd" d="M60.1667 63.1667C60.1667 67.6653 56.5293 71.3143 52.0352 71.3333C58.0328 71.3522 62.889 76.22 62.889 82.2221V87.6667H41.1112V82.2221C41.1112 76.2201 45.9673 71.3522 51.9649 71.3333C47.4707 71.3143 43.8333 67.6653 43.8333 63.1667C43.8333 58.6563 47.4897 55 52 55C56.5103 55 60.1667 58.6563 60.1667 63.1667Z" fill="#E57B83"/>
<path fill-rule="evenodd" clip-rule="evenodd" d="M13.9231 38.6667C7.89043 38.6667 3 43.5572 3 49.5898V93.077C3 99.1096 7.89043 104 13.9231 104H90.0769C96.1096 104 101 99.1097 101 93.077V49.5898C101 43.5572 96.1096 38.6667 90.0769 38.6667H13.9231ZM19.3505 49.5556C16.3341 49.5556 13.8889 52.0008 13.8889 55.0172V87.6496C13.8889 90.666 16.3341 93.1112 19.3505 93.1112H84.6496C87.6659 93.1112 90.1111 90.666 90.1111 87.6496V55.0172C90.1111 52.0008 87.6659 49.5556 84.6496 49.5556H19.3505Z" fill="#E57B83"/>
</svg>
