<svg width="703" height="143" viewBox="0 0 703 143" fill="none" xmlns="http://www.w3.org/2000/svg">
<g clip-path="url(#clip0_84_22)">
<path d="M178.614 56.1717C176.124 54.0745 172.06 51.9772 166.686 51.9772C161.312 51.9772 158.035 53.9434 158.035 57.4825C158.035 67.0511 185.823 65.216 185.823 81.8628C185.823 94.7083 175.993 102.442 158.297 102.442C147.025 102.442 139.291 96.4123 136.67 92.3489C136.014 91.3003 135.752 90.2517 135.752 89.2031C135.752 85.7951 138.636 82.9114 142.044 82.9114C143.879 82.9114 145.059 83.5668 146.369 84.6154C149.646 87.4991 153.972 89.8585 160.526 89.8585C166.948 89.8585 171.274 87.4991 171.274 83.96C171.274 74.7846 143.355 77.144 143.355 59.1865C143.355 45.5545 154.627 39.656 167.997 39.656C177.303 39.656 185.561 43.8505 188.445 48.4382C188.969 49.2246 189.363 50.5354 189.363 51.7151C189.363 55.1231 186.479 58.0068 183.071 58.0068C181.236 58.0068 179.925 57.2203 178.614 56.1717ZM255.775 47.5206L249.221 84.8775C248.434 89.3342 248.827 90.1206 251.842 90.1206C254.988 90.1206 256.561 91.6935 256.561 94.5772C256.561 98.2474 253.284 102.049 245.551 102.049C239.914 102.049 235.458 99.5582 234.016 92.3489C229.821 98.6406 223.267 102.704 214.616 102.704C202.164 102.704 195.479 93.5286 195.479 80.552C195.479 56.696 210.422 39.656 229.952 39.656C235.72 39.656 240.57 41.8843 243.191 44.3748C244.502 42.0154 246.861 40.4425 250.007 40.4425C253.939 40.4425 256.43 43.5883 255.775 47.5206ZM209.898 79.2412C209.898 85.7951 213.175 90.9071 218.942 90.9071C228.511 90.9071 235.195 83.1735 237.424 71.1145L240.307 55.1231C237.424 53.0258 234.278 51.9772 230.477 51.9772C219.335 51.9772 209.898 61.6769 209.898 79.2412ZM277.782 53.288H275.161C272.277 53.288 270.18 51.0597 270.18 48.3071C270.18 44.6369 273.588 41.4911 277.258 41.4911H279.879L281.714 30.8738C283.943 18.6837 292.201 7.67323 310.814 7.67323C313.828 7.67323 316.057 10.0326 316.057 12.9163C316.057 16.7175 312.518 19.9945 308.716 19.9945C301.507 19.9945 297.182 24.0578 296.133 29.8252L294.167 41.4911H302.949C305.833 41.4911 307.799 43.7194 307.799 46.472C307.799 50.1422 304.391 53.288 300.852 53.288H291.938L283.812 100.082C281.321 114.763 272.408 127.346 253.795 127.346C250.78 127.346 248.552 124.987 248.552 122.103C248.552 118.302 252.091 115.025 255.892 115.025C263.888 115.025 268.082 109.258 269.524 100.869L277.782 53.288ZM320.481 79.8966C320.481 87.2369 325.593 89.9895 332.803 89.9895C338.57 89.9895 342.765 88.0234 346.304 85.9262C347.877 85.0086 348.794 84.4843 350.498 84.4843C353.906 84.4843 356.659 87.2369 356.659 90.6449C356.659 93.1354 355.61 94.4462 354.037 95.7569C351.416 97.8542 344.075 102.704 331.099 102.704C316.287 102.704 306.849 94.9705 306.849 78.3237C306.849 55.9095 320.35 39.656 341.061 39.656C354.693 39.656 362.688 46.9963 362.688 55.7785C362.688 65.216 357.838 76.2265 320.875 76.2265C320.613 77.2751 320.481 78.9791 320.481 79.8966ZM348.663 56.5649C348.663 54.4677 346.828 51.584 340.274 51.584C332.278 51.584 325.725 56.0406 322.579 65.6092C346.828 65.6092 348.663 59.3175 348.663 56.5649ZM391.486 101H369.859C366.975 101 364.878 98.7717 364.878 96.0191C364.878 92.3489 368.286 89.2031 371.956 89.2031H373.66L379.951 53.288H377.592C374.708 53.288 372.611 51.0597 372.611 48.3071C372.611 44.6369 376.019 41.4911 379.689 41.4911H389.258C393.19 41.4911 396.205 43.5883 395.156 48.5692C398.564 43.4572 404.07 39.7871 410.492 39.7871C414.294 39.7871 416.391 42.2775 416.391 45.5545C416.391 49.6178 412.59 53.1569 408.526 53.1569C399.482 53.1569 393.321 58.9243 391.748 67.7065L387.947 89.2031H393.583C396.467 89.2031 398.433 91.4314 398.433 94.184C398.433 97.8542 395.156 101 391.486 101ZM433.312 84.8775C432.526 89.3342 432.919 90.1206 435.934 90.1206C439.079 90.1206 440.652 91.6935 440.652 94.5772C440.652 98.2474 437.507 102.049 429.904 102.049C421.646 102.049 417.321 96.1502 418.631 88.6788L430.822 19.4702H428.331C425.447 19.4702 423.35 17.2418 423.35 14.4892C423.35 10.8191 426.758 7.67323 430.428 7.67323H439.997C443.929 7.67323 446.551 10.8191 445.895 14.7514L433.312 84.8775ZM511.144 47.5206L504.59 84.8775C503.804 89.3342 504.197 90.1206 507.212 90.1206C510.358 90.1206 511.931 91.6935 511.931 94.5772C511.931 98.2474 508.654 102.049 500.92 102.049C495.284 102.049 490.827 99.5582 489.385 92.3489C485.191 98.6406 478.637 102.704 469.986 102.704C457.534 102.704 450.849 93.5286 450.849 80.552C450.849 56.696 465.792 39.656 485.322 39.656C491.089 39.656 495.939 41.8843 498.561 44.3748C499.872 42.0154 502.231 40.4425 505.377 40.4425C509.309 40.4425 511.8 43.5883 511.144 47.5206ZM465.267 79.2412C465.267 85.7951 468.544 90.9071 474.312 90.9071C483.88 90.9071 490.565 83.1735 492.793 71.1145L495.677 55.1231C492.793 53.0258 489.648 51.9772 485.846 51.9772C474.705 51.9772 465.267 61.6769 465.267 79.2412ZM560.809 102.442L561.464 98.9028C557.139 101.524 552.813 102.704 548.75 102.704C535.249 102.704 526.991 96.2812 526.991 84.8775C526.991 82.5182 527.253 80.4209 527.647 78.0615L531.972 53.288H529.613C526.729 53.288 524.632 51.0597 524.632 48.3071C524.632 44.6369 528.04 41.4911 531.71 41.4911H541.672C545.342 41.4911 547.701 44.768 547.046 48.5692L541.803 78.0615C541.541 79.5034 541.41 80.8142 541.41 81.8628C541.41 86.4505 543.638 89.8585 551.503 89.8585C561.595 89.8585 564.61 81.7317 566.052 73.4738L569.591 53.288H567.232C564.348 53.288 562.251 51.0597 562.251 48.3071C562.251 44.6369 565.659 41.4911 569.329 41.4911H578.898C582.83 41.4911 585.32 44.6369 584.665 48.5692L575.621 99.0338C572.344 117.122 562.382 127.346 542.983 127.346C532.234 127.346 526.205 123.545 523.976 121.841C522.272 120.399 521.224 119.089 521.224 116.467C521.224 113.19 523.976 110.438 527.384 110.438C529.088 110.438 530.006 110.962 531.579 111.879C534.856 113.714 538.919 115.287 544.424 115.287C553.731 115.287 559.367 110.438 560.809 102.442ZM606.828 79.8966C606.828 87.2369 611.94 89.9895 619.149 89.9895C624.917 89.9895 629.111 88.0234 632.65 85.9262C634.223 85.0086 635.141 84.4843 636.845 84.4843C640.253 84.4843 643.005 87.2369 643.005 90.6449C643.005 93.1354 641.957 94.4462 640.384 95.7569C637.762 97.8542 630.422 102.704 617.445 102.704C602.634 102.704 593.196 94.9705 593.196 78.3237C593.196 55.9095 606.697 39.656 627.407 39.656C641.039 39.656 649.035 46.9963 649.035 55.7785C649.035 65.216 644.185 76.2265 607.221 76.2265C606.959 77.2751 606.828 78.9791 606.828 79.8966ZM635.01 56.5649C635.01 54.4677 633.175 51.584 626.621 51.584C618.625 51.584 612.071 56.0406 608.925 65.6092C633.175 65.6092 635.01 59.3175 635.01 56.5649ZM677.833 101H656.205C653.322 101 651.224 98.7717 651.224 96.0191C651.224 92.3489 654.632 89.2031 658.303 89.2031H660.007L666.298 53.288H663.939C661.055 53.288 658.958 51.0597 658.958 48.3071C658.958 44.6369 662.366 41.4911 666.036 41.4911H675.605C679.537 41.4911 682.552 43.5883 681.503 48.5692C684.911 43.4572 690.416 39.7871 696.839 39.7871C700.64 39.7871 702.738 42.2775 702.738 45.5545C702.738 49.6178 698.936 53.1569 694.873 53.1569C685.829 53.1569 679.668 58.9243 678.095 67.7065L674.294 89.2031H679.93C682.814 89.2031 684.78 91.4314 684.78 94.184C684.78 97.8542 681.503 101 677.833 101Z" fill="#E57B83"/>
<path d="M21.8462 27.7692C23.6667 20.4872 31.677 5.9231 49.1539 5.9231C66.6308 5.9231 74.6411 20.4872 76.4616 27.7692" stroke="#E57B83" stroke-width="10.9231" stroke-linecap="round"/>
<path fill-rule="evenodd" clip-rule="evenodd" d="M57.3462 63.2692C57.3462 67.7937 53.6784 71.4615 49.1539 71.4615C44.6294 71.4615 40.9616 67.7937 40.9616 63.2692C40.9616 58.7447 44.6294 55.0769 49.1539 55.0769C53.6784 55.0769 57.3462 58.7447 57.3462 63.2692ZM60.077 87.8462V82.3846C60.077 76.3519 55.1866 71.4615 49.1539 71.4615C43.1213 71.4615 38.2308 76.3519 38.2308 82.3846V87.8462H60.077Z" fill="#E57B83"/>
<path fill-rule="evenodd" clip-rule="evenodd" d="M10.9231 38.6924C4.89043 38.6924 0 43.5828 0 49.6155V93.3078C0 99.3404 4.89044 104.231 10.9231 104.231H87.3846C93.4173 104.231 98.3077 99.3404 98.3077 93.3078V49.6155C98.3077 43.5828 93.4173 38.6924 87.3846 38.6924H10.9231ZM16.3847 49.6154C13.3683 49.6154 10.9231 52.0607 10.9231 55.077V87.8462C10.9231 90.8625 13.3684 93.3078 16.3847 93.3078H81.9231C84.9395 93.3078 87.3847 90.8625 87.3847 87.8462V55.077C87.3847 52.0607 84.9394 49.6154 81.9231 49.6154H16.3847Z" fill="#E57B83"/>
</g>
<defs>
<clipPath id="clip0_84_22">
<rect width="703" height="143" fill="white"/>
</clipPath>
</defs>
</svg>
