<svg width="363" height="381" viewBox="0 0 363 381" fill="none" xmlns="http://www.w3.org/2000/svg">
<path d="M253.563 23C255.395 23.1172 255.395 23.1172 257.563 24C259.449 26.2578 259.449 26.2578 261.25 29.125C261.852 30.0557 262.454 30.9864 263.074 31.9453C264.823 35.5349 265.511 37.9938 265.563 42C264.784 44.0929 263.81 45.9813 262.753 47.948C260.856 51.5044 259.197 54.9942 258.563 59C260.069 63.7903 262.592 67.2263 265.48 71.272C269.613 77.867 271.211 87.2422 271.563 95C271.626 96.0003 271.689 97.0006 271.754 98.0312C272.175 110.084 269.495 121.047 264.563 132C265.199 131.92 265.836 131.839 266.493 131.756C278.313 130.274 290.143 128.851 302 127.688C303.372 127.537 303.372 127.537 304.772 127.383C313.411 126.583 322.598 127.322 329.563 133C338.288 141.317 340.398 154.333 342.535 165.719C342.707 166.634 342.88 167.549 343.057 168.491C344.847 178.223 346.175 187.993 347.375 197.812C347.556 199.278 347.556 199.278 347.741 200.774C350.158 220.451 352.222 240.166 354.199 259.892C354.434 262.213 354.673 264.534 354.914 266.854C356.489 282.1 357.841 297.271 357.945 312.609C357.959 313.736 357.972 314.862 357.986 316.023C357.93 324.721 356.755 332.892 350.492 339.379C342.984 345.686 334.61 347.632 325.203 349.453C323.551 349.777 323.551 349.777 321.866 350.107C310.008 352.376 298.094 354.068 286.125 355.625C284.279 355.868 284.279 355.868 282.396 356.116C223.885 363.8 165.153 369.955 106.443 375.889C103.541 376.183 100.639 376.483 97.7379 376.783C63.5285 380.314 63.5285 380.314 48.129 380.488C47.1767 380.507 46.2244 380.527 45.2432 380.546C38.2812 380.49 31.1117 379.152 25.7547 374.394C18.4507 365.565 16.8924 353.645 15.629 342.629C15.4678 341.298 15.3058 339.968 15.143 338.637C14.594 334.094 14.0768 329.547 13.5626 325C13.4668 324.158 13.371 323.316 13.2723 322.448C11.854 309.975 10.4914 297.497 9.15317 285.015C8.71997 280.975 8.28276 276.936 7.84164 272.898C5.58394 252.223 3.41269 231.549 1.754 210.816C1.6588 209.648 1.65881 209.648 1.56169 208.457C-1.03374 176.284 -1.03374 176.284 6.56259 167C13.9264 159.457 24.3331 157.512 34.4376 155.969C35.463 155.805 36.4883 155.642 37.5448 155.474C50.5056 153.464 63.5327 151.979 76.5626 150.5C79.1957 150.197 81.8289 149.893 84.462 149.59C105.475 147.18 126.506 144.983 147.563 143C147.563 139.679 147.119 139.02 145.313 136.375C135.694 121.35 133.747 104.064 136.563 86.625C139.236 74.5191 145.25 63.1912 153.563 54C154.092 53.3903 154.622 52.7805 155.168 52.1523C166.65 39.7431 183.87 32.6804 200.555 31.7148C213.944 31.261 224.95 34.238 236.664 40.4766C239.511 42.0726 239.511 42.0726 242.563 43C242.86 42.4297 243.158 41.8593 243.465 41.2717C244.808 38.701 246.154 36.1317 247.5 33.5625C247.969 32.6647 248.437 31.7668 248.92 30.8418C249.368 29.9878 249.816 29.1338 250.277 28.2539C250.691 27.4631 251.105 26.6724 251.531 25.8577C252.563 24 252.563 24 253.563 23ZM152.688 63.375C143.139 76.3791 139.295 91.9527 141.188 107.875C144.224 126.114 152.559 140.598 167.121 152.004C181.41 161.834 198.118 164.69 215.063 162.062C228.621 159.553 240.068 152.933 249.563 143C250.109 142.484 250.656 141.969 251.219 141.438C261.744 130.688 266.219 114.818 266.684 100.188C266.275 87.52 262.374 75.6959 255.563 65C252.308 68.7433 250.781 73.0278 248.938 77.5625C244.629 87.8847 239.829 97.9453 234.938 108C234.577 108.745 234.216 109.49 233.844 110.257C221.151 136.411 221.151 136.411 217.563 140C212.29 139.961 208.677 136.369 204.75 133.25C204.008 132.671 203.266 132.092 202.502 131.495C200.179 129.675 197.869 127.84 195.563 126C194.477 125.138 194.477 125.138 193.37 124.258C166.957 103.215 166.957 103.215 166.234 97.3281C166.26 96.3123 166.286 95.2966 166.313 94.25C166.34 93.113 166.367 91.9761 166.395 90.8047C166.578 86.6601 166.764 82.5169 167 78.375C167.059 77.3449 167.059 77.3449 167.118 76.2939C167.312 73.3227 167.616 70.8405 168.563 68C172.971 68.5196 175.218 70.0101 178.563 72.875C179.523 73.6897 180.483 74.5044 181.473 75.3438C181.977 75.7782 182.481 76.2126 183.001 76.6602C184.571 78.0069 186.156 79.3338 187.746 80.6562C193.928 85.8124 199.955 91.0905 205.781 96.6479C208.249 99.246 208.249 99.246 211.563 100C212.089 99.0071 212.089 99.0071 212.626 97.9941C221.245 81.766 230.181 65.8018 239.563 50C228.592 40.7732 214.393 37.2902 200.238 37.6523C180.502 39.519 165.334 48.2832 152.688 63.375ZM124 167.875C122.606 168.676 122.606 168.676 121.184 169.492C120.319 169.99 119.454 170.487 118.563 171C117.235 171.678 115.904 172.35 114.563 173C114.047 172.484 113.531 171.969 113 171.438C109.524 169.388 107.424 170.119 103.563 171C100.744 171.975 100.744 171.975 98.5626 173C98.212 172.505 97.8613 172.01 97.5001 171.5C95.2298 169.742 93.5972 169.464 90.7462 169.562C86.0567 170.502 81.803 172.853 77.5626 175C76.9026 174.34 76.2426 173.68 75.5626 173C68.2688 172.26 63.1141 175.708 57.5626 180C57.4182 179.361 57.2738 178.721 57.1251 178.062C56.7525 176.025 56.7525 176.025 55.5626 175C50.0768 174.04 46.9173 176.302 42.5157 179.199C40.2482 181.29 39.4944 183.091 38.5626 186C39.2986 185.506 40.0347 185.013 40.7931 184.504C41.7689 183.863 42.7447 183.223 43.7501 182.562C44.713 181.924 45.676 181.286 46.6681 180.629C49.4124 179.085 51.4668 178.402 54.5626 178C54.8926 180.31 55.2226 182.62 55.5626 185C58.4615 184.006 60.5102 183.044 62.8751 181.062C66.2879 178.443 69.4969 177.378 73.5626 176C73.5626 177.65 73.5626 179.3 73.5626 181C74.5526 181.33 75.5426 181.66 76.5626 182C79.4088 180.4 82.0023 178.536 84.6759 176.664C87.7271 174.905 90.0847 174.36 93.5626 174C94.5526 175.98 95.5426 177.96 96.5626 180C99.1998 179.048 101.343 178.172 103.563 176.438C105.887 174.767 107.754 174.39 110.563 174C111.553 175.98 111.553 175.98 112.563 178C116.511 178 117.125 177.96 120.129 175.918C120.779 175.48 121.43 175.043 122.1 174.592C122.768 174.128 123.436 173.665 124.125 173.188C124.797 172.736 125.47 172.284 126.162 171.818C129.235 169.728 131.986 167.696 134.563 165C130.192 164.635 127.758 165.69 124 167.875ZM318.942 169.823C318.118 169.911 317.293 169.999 316.443 170.089C313.717 170.381 310.991 170.679 308.266 170.977C306.317 171.187 304.368 171.397 302.418 171.606C298.306 172.049 294.194 172.495 290.082 172.943C284.985 173.498 279.887 174.048 274.79 174.597C264.55 175.698 254.312 176.822 244.076 177.961C237.724 178.663 231.369 179.329 225.01 179.969C193.304 183.175 162.404 188.507 131.245 195.147C125.379 196.391 119.508 197.608 113.637 198.828C102.273 201.193 90.9159 203.586 79.5626 206C79.5626 206.33 79.5626 206.66 79.5626 207C89.6256 206.452 99.6435 205.676 109.671 204.661C115.655 204.081 121.551 203.891 127.563 204C128.223 206.31 128.883 208.62 129.563 211C142.24 209.302 154.734 206.625 167.262 204.082C169.712 203.587 172.163 203.092 174.613 202.597C180.475 201.413 186.336 200.227 192.197 199.039C198.932 197.674 205.669 196.312 212.405 194.951C227.598 191.88 242.79 188.803 257.982 185.725C263.456 184.616 268.93 183.508 274.404 182.4C294.792 178.272 315.178 174.14 335.563 170C335.563 169.67 335.563 169.34 335.563 169C329.948 168.917 324.52 169.205 318.942 169.823ZM329.341 173.034C327.422 173.416 327.422 173.416 325.463 173.806C324.046 174.098 322.628 174.389 321.211 174.681C319.715 174.982 318.22 175.283 316.724 175.583C312.647 176.402 308.573 177.232 304.499 178.064C300.193 178.941 295.885 179.809 291.577 180.678C283.365 182.335 275.156 184.002 266.947 185.671C257.783 187.535 248.618 189.388 239.452 191.24C223.02 194.561 206.59 197.893 190.162 201.235C188.59 201.555 187.017 201.874 185.445 202.194C184.686 202.349 183.927 202.503 183.146 202.662C177.137 203.884 171.129 205.102 165.12 206.318C160.873 207.178 156.627 208.041 152.381 208.904C150.527 209.281 148.673 209.656 146.819 210.031C144.379 210.524 141.939 211.021 139.5 211.518C138.463 211.726 138.463 211.726 137.405 211.939C133.883 212.661 133.883 212.661 130.563 214C130.703 215.792 130.85 217.584 131 219.375C131.122 220.872 131.122 220.872 131.246 222.398C131.412 224.979 131.412 224.979 132.563 227C140.757 226.351 140.757 226.351 148.563 224C148.827 223.02 149.091 222.039 149.363 221.029C149.759 220.03 150.155 219.03 150.563 218C153.334 216.81 153.334 216.81 156.823 216.217C158.09 215.996 159.357 215.776 160.662 215.549C166.563 214.719 172.455 214.055 178.391 213.527C180.367 213.337 182.343 213.147 184.319 212.955C185.696 212.82 187.074 212.687 188.451 212.555C212.039 210.285 235.273 207.448 258.5 202.625C259.574 202.402 260.647 202.179 261.753 201.95C271.926 200.268 271.926 200.268 281.563 197C281.903 195.329 281.903 195.329 282.25 193.625C283.563 190 283.563 190 286.555 188.379C290.928 186.704 295.379 185.965 300 185.312C300.868 185.187 301.736 185.062 302.63 184.933C310.476 183.879 318.68 182.95 326.563 184C327.553 185.485 327.553 185.485 328.563 187C330.188 186.859 331.813 186.712 333.438 186.562C334.343 186.481 335.247 186.4 336.18 186.316C338.574 186.13 338.574 186.13 340.563 185C340.233 181.04 339.903 177.08 339.563 173C335.355 171.948 333.512 172.189 329.341 173.034ZM300.875 187.875C299.748 188.049 298.621 188.223 297.459 188.402C296.376 188.576 295.292 188.75 294.176 188.93C293.194 189.087 292.212 189.244 291.201 189.406C288.7 189.969 286.784 190.743 284.563 192C284.893 193.32 285.223 194.64 285.563 196C292.068 195.461 297.031 194.688 302.563 191C304.91 190.875 304.91 190.875 307.625 191C313.176 191.118 318.184 190.307 323.563 189C323.563 188.34 323.563 187.68 323.563 187C316.217 184.551 308.32 186.662 300.875 187.875ZM333.875 189C333.067 189.186 332.259 189.371 331.426 189.562C330.811 189.707 330.196 189.851 329.563 190C329.704 191.459 329.851 192.917 330 194.375C330.081 195.187 330.163 195.999 330.246 196.836C330.453 199.043 330.453 199.043 331.563 201C337.008 200.01 337.008 200.01 342.563 199C342.233 195.37 341.903 191.74 341.563 188C338.765 188 336.584 188.372 333.875 189ZM138.563 190C138.563 190.33 138.563 190.66 138.563 191C140.213 191 141.863 191 143.563 191C143.563 190.67 143.563 190.34 143.563 190C141.913 190 140.263 190 138.563 190ZM118.757 192.162C117.194 192.347 117.194 192.347 115.6 192.536C112.177 192.943 108.754 193.358 105.332 193.773C102.935 194.061 100.537 194.347 98.1399 194.633C93.1205 195.234 88.1015 195.838 83.0829 196.444C76.683 197.218 70.2825 197.985 63.8816 198.751C57.7399 199.485 51.5985 200.223 45.4571 200.961C44.3011 201.1 43.1451 201.238 41.9541 201.381C30.1384 202.8 18.3306 204.221 6.56259 206C6.52335 210.165 6.57871 213.942 7.56259 218C9.48036 217.737 11.3967 217.464 13.3126 217.188C14.3799 217.037 15.4473 216.886 16.547 216.73C19.7784 216.2 22.9123 215.421 26.0821 214.602C32.4571 212.977 38.8734 211.758 45.3442 210.581C65.7438 206.859 86.0565 202.698 106.375 198.562C107.169 198.401 107.964 198.239 108.782 198.073C118.71 196.052 128.636 194.028 138.563 192C138.563 191.67 138.563 191.34 138.563 191C131.852 190.873 125.414 191.345 118.757 192.162ZM318.938 192C318.12 192.186 317.303 192.371 316.461 192.562C315.835 192.707 315.208 192.851 314.563 193C314.893 193.99 315.223 194.98 315.563 196C318.863 195.67 322.163 195.34 325.563 195C325.563 193.68 325.563 192.36 325.563 191C323.224 191 321.217 191.479 318.938 192ZM301.563 196C300.703 198.293 300.703 198.293 300.563 201C301.999 203.52 301.999 203.52 304.563 205C308.405 204.908 308.405 204.908 311.563 203C311.813 200.042 311.813 200.042 311.563 197C309.744 194.748 309.744 194.748 307.125 194.812C304.443 194.903 304.443 194.903 301.563 196ZM289.938 198C289.12 198.186 288.303 198.371 287.461 198.562C286.835 198.707 286.208 198.851 285.563 199C285.563 199.66 285.563 200.32 285.563 201C291.008 200.01 291.008 200.01 296.563 199C296.563 198.34 296.563 197.68 296.563 197C294.224 197 292.217 197.479 289.938 198ZM319.313 199.5C318.253 199.918 318.253 199.918 317.172 200.344C316.641 200.56 316.11 200.777 315.563 201C315.563 201.99 315.563 202.98 315.563 204C321.625 203.337 321.625 203.337 327.563 202C327.563 200.68 327.563 199.36 327.563 198C324.012 198 322.46 198.241 319.313 199.5ZM273.899 201.094C272.216 201.432 272.216 201.432 270.5 201.777C269.324 202.016 268.149 202.254 266.938 202.5C265.754 202.738 264.571 202.977 263.352 203.223C260.422 203.813 257.492 204.406 254.563 205C255.553 206.485 255.553 206.485 256.563 208C257.102 210.66 257.296 213.293 257.563 216C266.453 215.353 274.935 213.13 283.563 211C282.903 207.37 282.243 203.74 281.563 200C278.91 200 276.5 200.568 273.899 201.094ZM331.563 204C331.129 205.134 330.696 206.269 330.25 207.438C328.563 211 328.563 211 326.797 212.055C314.199 216.211 299.688 216.38 286.563 216C286.233 215.34 285.903 214.68 285.563 214C277.779 214.578 270.282 215.95 262.652 217.56C261.399 217.821 260.146 218.081 258.854 218.349C255.444 219.057 252.036 219.772 248.627 220.488C245.043 221.239 241.457 221.985 237.871 222.731C231.082 224.145 224.295 225.563 217.508 226.984C209.061 228.752 200.613 230.514 192.164 232.275C189.194 232.895 186.224 233.514 183.254 234.133C182.534 234.284 181.813 234.434 181.071 234.589C176.134 235.618 171.197 236.65 166.26 237.682C164.93 237.96 163.6 238.238 162.271 238.516C159.829 239.027 157.387 239.538 154.946 240.049C148.491 241.398 142.032 242.72 135.563 244C134.403 247.478 134.854 249.459 135.563 253C141.391 252.487 146.978 251.795 152.563 250C152.893 249.01 153.223 248.02 153.563 247C163.275 244.87 172.841 243.411 182.733 242.434C200.352 240.662 217.554 237.603 234.879 234.006C238.641 233.228 242.407 232.467 246.173 231.703C252.45 230.427 258.725 229.14 264.998 227.845C272.239 226.351 279.483 224.871 286.729 223.401C294.515 221.82 302.299 220.23 310.082 218.636C312.307 218.181 314.533 217.728 316.758 217.275C320.877 216.436 324.993 215.586 329.109 214.734C330.334 214.486 331.559 214.237 332.82 213.981C333.935 213.749 335.05 213.516 336.198 213.277C337.168 213.077 338.137 212.878 339.136 212.672C341.793 212.072 341.793 212.072 344.563 210C344.233 207.36 343.903 204.72 343.563 202C339.185 201.735 335.61 202.276 331.563 204ZM286.563 204C286.893 205.98 287.223 207.96 287.563 210C289.543 209.719 291.522 209.425 293.5 209.125C294.602 208.963 295.704 208.8 296.84 208.633C298.188 208.32 298.188 208.32 299.563 208C299.893 207.34 300.223 206.68 300.563 206C299.903 206 299.243 206 298.563 206C298.233 205.01 297.903 204.02 297.563 203C293.773 202.889 290.287 203.307 286.563 204ZM108.7 206.902C107.853 206.998 107.007 207.094 106.135 207.193C103.363 207.508 100.592 207.83 97.8204 208.152C95.8861 208.374 93.9518 208.596 92.0174 208.818C87.9774 209.281 83.9379 209.748 79.8985 210.218C74.7138 210.82 69.5283 211.414 64.3425 212.006C60.3549 212.462 56.3677 212.922 52.3807 213.383C50.4678 213.604 48.5547 213.824 46.6416 214.042C43.9769 214.347 41.3129 214.657 38.649 214.969C37.4584 215.103 37.4584 215.103 36.2437 215.241C32.2776 215.657 32.2776 215.657 28.5626 217C28.8926 221.62 29.2226 226.24 29.5626 231C35.691 230.393 41.6363 229.49 47.6624 228.234C48.5221 228.058 49.3817 227.883 50.2674 227.702C53.0762 227.127 55.8839 226.546 58.6915 225.965C60.6515 225.562 62.6117 225.16 64.5719 224.758C69.7067 223.705 74.8404 222.647 79.974 221.587C85.2223 220.505 90.4716 219.428 95.7208 218.35C106.002 216.238 116.283 214.12 126.563 212C126.068 209.03 126.068 209.03 125.563 206C119.857 205.907 114.363 206.236 108.7 206.902ZM316.832 206.531C316.082 206.687 315.331 206.842 314.558 207.002C312.163 207.499 309.769 207.999 307.375 208.5C305.751 208.838 304.126 209.175 302.502 209.512C298.522 210.338 294.542 211.168 290.563 212C290.563 212.33 290.563 212.66 290.563 213C297.96 213.193 305.105 212.642 312.438 211.688C313.965 211.511 313.965 211.511 315.524 211.33C316.993 211.142 316.993 211.142 318.492 210.949C319.811 210.784 319.811 210.784 321.156 210.616C323.911 209.911 325.488 208.93 327.563 207C327.563 206.34 327.563 205.68 327.563 205C323.862 205 320.435 205.774 316.832 206.531ZM337.292 214.797C336.421 214.974 335.55 215.151 334.653 215.333C333.7 215.529 332.748 215.725 331.767 215.928C330.762 216.133 329.757 216.337 328.721 216.548C325.393 217.227 322.066 217.911 318.738 218.594C316.433 219.065 314.128 219.536 311.823 220.006C305.752 221.246 299.681 222.49 293.61 223.735C287.417 225.004 281.223 226.269 275.029 227.535C262.873 230.02 250.718 232.509 238.563 235C238.563 235.33 238.563 235.66 238.563 236C246.923 235.63 255.25 235.052 263.582 234.266C264.295 234.199 265.007 234.132 265.742 234.063C269.344 233.723 272.945 233.375 276.545 233.016C277.92 232.883 279.296 232.751 280.672 232.621C281.353 232.556 282.034 232.492 282.736 232.425C286.747 232.073 290.633 232.026 294.652 232.191C304.721 232.317 314.588 229.613 324.375 227.5C326.435 227.065 328.496 226.632 330.557 226.199C335.562 225.146 340.563 224.078 345.563 223C345.068 218.545 345.068 218.545 344.563 214C341.926 214 339.853 214.273 337.292 214.797ZM115.609 216.312C114.619 216.512 114.619 216.512 113.609 216.716C111.509 217.14 109.411 217.57 107.313 218C105.886 218.289 104.458 218.578 103.031 218.867C99.5409 219.574 96.0515 220.286 92.5626 221C93.3971 223.225 93.3971 223.225 95.8204 223.895C96.7666 224.197 97.7127 224.5 98.6876 224.812C102.462 226.077 104.978 227.162 107.813 229.938C110.536 232.139 111.647 231.993 115.254 231.684C122.106 230.466 122.106 230.466 128.563 228C127.573 221.565 127.573 221.565 126.563 215C122.66 215 119.425 215.536 115.609 216.312ZM13.8126 219.5C10.7188 220.243 10.7188 220.243 7.56259 221C7.89259 225.62 8.22259 230.24 8.56259 235C14.5217 234.51 19.881 233.853 25.5626 232C25.5898 230.417 25.6091 228.833 25.6251 227.25C25.6367 226.368 25.6483 225.487 25.6602 224.578C25.5709 222.218 25.2317 220.255 24.5626 218C20.6564 218 17.5946 218.592 13.8126 219.5ZM217.563 223C217.563 223.33 217.563 223.66 217.563 224C219.213 224 220.863 224 222.563 224C222.563 223.67 222.563 223.34 222.563 223C220.913 223 219.263 223 217.563 223ZM198.516 224.875C196.599 225.057 194.682 225.24 192.766 225.422C189.793 225.71 186.82 225.999 183.848 226.291C156.269 228.983 156.269 228.983 148.946 227.453C145.478 226.794 142.664 227.64 139.25 228.438C137.996 228.725 136.742 229.012 135.449 229.309C134.497 229.537 133.544 229.765 132.563 230C133.223 233.96 133.883 237.92 134.563 242C162.266 236.503 189.958 230.974 217.563 225C217.563 224.67 217.563 224.34 217.563 224C211.143 223.909 204.901 224.237 198.516 224.875ZM60.0352 227.398C58.9182 227.63 58.9182 227.63 57.7785 227.866C56.2017 228.195 54.6256 228.526 53.0501 228.86C50.6396 229.372 48.2274 229.874 45.8145 230.375C44.2838 230.695 42.7532 231.015 41.2227 231.336C40.5008 231.487 39.7788 231.638 39.035 231.794C36.1471 232.408 33.3664 233.065 30.5626 234C30.5082 235.583 30.4696 237.166 30.4376 238.75C30.4144 239.632 30.3912 240.513 30.3673 241.422C30.5732 244.14 31.29 245.631 32.5626 248C46.3365 246.49 46.3365 246.49 58.4024 240.652C60.0983 238.114 60.0983 238.114 61.3477 235.449C63.2568 231.6 66.2086 229.601 69.5626 227C66.4027 225.42 63.3599 226.686 60.0352 227.398ZM337.468 226.703C336.674 226.856 335.88 227.01 335.062 227.168C334.214 227.337 333.366 227.506 332.492 227.68C331.176 227.939 331.176 227.939 329.833 228.203C327.982 228.57 326.131 228.938 324.281 229.308C321.443 229.874 318.602 230.427 315.762 230.98C313.963 231.338 312.165 231.696 310.367 232.055C309.515 232.219 308.663 232.384 307.785 232.554C303.228 233.365 303.228 233.365 299.563 236C299.501 236.804 299.439 237.609 299.375 238.438C298.563 241 298.563 241 295.7 242.534C290.802 244.467 285.731 245.222 280.547 246.012C278.917 246.266 278.917 246.266 277.254 246.525C264.842 248.377 252.363 249.408 239.865 250.465C216.496 252.454 193.482 255.057 170.552 260.125C166.342 261.056 162.12 261.92 157.895 262.777C151.111 264.156 144.334 265.565 137.563 267C137.893 270.3 138.223 273.6 138.563 277C147.567 275.696 156.475 274.093 165.388 272.27C166.719 271.999 168.05 271.73 169.382 271.46C172.969 270.733 176.556 270.002 180.143 269.271C183.962 268.492 187.782 267.718 191.601 266.942C198.874 265.466 206.146 263.986 213.418 262.505C221.502 260.859 229.587 259.217 237.673 257.575C252.374 254.588 267.075 251.597 281.774 248.603C289.954 246.938 298.133 245.274 306.314 243.614C310.97 242.669 315.626 241.723 320.282 240.776C322.395 240.346 324.507 239.918 326.62 239.49C329.462 238.914 332.303 238.336 335.144 237.758C335.966 237.592 336.787 237.426 337.634 237.255C340.678 236.633 343.612 235.984 346.563 235C346.832 230.349 346.832 230.349 345.563 226C342.575 226 340.331 226.143 337.468 226.703ZM119.438 232.5C117.516 232.918 117.516 232.918 115.555 233.344C114.567 233.56 113.58 233.777 112.563 234C114.543 237.63 116.523 241.26 118.563 245C122.523 244.34 126.483 243.68 130.563 243C129.903 239.04 129.243 235.08 128.563 231C125.43 231 122.493 231.833 119.438 232.5ZM16.3751 236.5C14.127 236.995 11.8788 237.49 9.56259 238C9.89259 242.62 10.2226 247.24 10.5626 252C13.6563 251.536 13.6563 251.536 16.8126 251.062C17.9727 250.888 19.1329 250.714 20.3282 250.535C23.7105 250.02 23.7105 250.02 27.5626 249C27.2326 244.38 26.9026 239.76 26.5626 235C22.9875 235 19.8667 235.731 16.3751 236.5ZM337.379 239.154C336.108 239.411 334.837 239.667 333.527 239.931C332.119 240.219 330.711 240.507 329.303 240.795C327.817 241.096 326.331 241.396 324.845 241.697C320.797 242.516 316.749 243.34 312.701 244.165C308.422 245.037 304.142 245.904 299.863 246.771C291.705 248.425 283.548 250.084 275.392 251.743C266.288 253.596 257.184 255.443 248.079 257.29C231.75 260.603 215.423 263.922 199.096 267.246C190.781 268.939 182.464 270.629 174.147 272.314C169.903 273.175 165.659 274.037 161.415 274.9C159.559 275.277 157.703 275.652 155.847 276.027C153.404 276.521 150.961 277.018 148.518 277.516C147.825 277.655 147.132 277.794 146.418 277.937C142.889 278.659 142.889 278.659 139.563 280C139.563 282.97 139.563 285.94 139.563 289C143.507 289.986 144.994 289.917 148.813 289.062C150.151 288.771 150.151 288.771 151.516 288.473C152.191 288.317 152.867 288.161 153.563 288C153.893 285.03 154.223 282.06 154.563 279C170.295 276.314 185.951 273.855 201.871 272.613C236.862 269.83 270.855 264.781 305.25 257.688C306.25 257.482 307.251 257.276 308.281 257.065C314.946 255.694 321.606 254.3 328.262 252.887C329.13 252.704 329.999 252.52 330.894 252.332C333.319 251.818 335.741 251.295 338.163 250.768C338.875 250.618 339.586 250.468 340.319 250.313C343.602 249.587 345.724 248.893 348.563 247C348.233 244.03 347.903 241.06 347.563 238C343.897 238 340.953 238.428 337.379 239.154ZM71.9376 242.312C70.4642 242.678 70.4642 242.678 68.961 243.051C67.7738 243.521 67.7738 243.521 66.5626 244C65.6019 246.882 65.4568 248.699 65.5001 251.688C65.5091 252.496 65.5181 253.304 65.5274 254.137C65.539 254.752 65.5506 255.366 65.5626 256C68.4298 255.427 69.424 255.139 71.5626 253C73.5661 253.312 75.5659 253.648 77.5626 254C80.3312 253.631 80.3312 253.631 82.5626 253C82.5626 252.34 82.5626 251.68 82.5626 251C83.278 251.184 83.9935 251.369 84.7306 251.559C87.7904 252.036 89.8709 251.743 92.8751 251.062C94.1996 250.771 94.1996 250.771 95.5509 250.473C96.2147 250.317 96.8786 250.161 97.5626 250C97.5626 249.34 97.5626 248.68 97.5626 248C93.2726 246.68 88.9826 245.36 84.5626 244C84.5626 244.99 84.5626 245.98 84.5626 247C82.9126 247 81.2626 247 79.5626 247C79.2326 246.34 78.9026 245.68 78.5626 245C80.2126 244.67 81.8626 244.34 83.5626 244C82.2506 242.438 82.2506 242.438 80.5626 241C77.4307 241 74.9653 241.534 71.9376 242.312ZM43.0626 247.938C41.7419 248.211 41.7419 248.211 40.3946 248.49C39.5529 248.667 38.7111 248.845 37.8438 249.027C37.071 249.19 36.2983 249.352 35.502 249.519C33.4987 249.941 33.4987 249.941 31.5626 251C31.8926 254.96 32.2226 258.92 32.5626 263C39.4926 261.68 46.4226 260.36 53.5626 259C53.8926 254.71 54.2226 250.42 54.5626 246C50.6783 246 46.8504 247.136 43.0626 247.938ZM119.563 248C119.893 250.64 120.223 253.28 120.563 256C122.021 255.859 123.48 255.712 124.938 255.562C125.75 255.481 126.562 255.4 127.399 255.316C129.605 255.109 129.605 255.109 131.563 254C131.233 251.36 130.903 248.72 130.563 246C126.479 246 123.439 246.807 119.563 248ZM338.904 252.253C337.896 252.453 337.896 252.453 336.868 252.657C334.648 253.099 332.43 253.545 330.211 253.992C328.671 254.301 327.13 254.61 325.59 254.919C322.363 255.568 319.137 256.219 315.911 256.872C311.769 257.709 307.624 258.536 303.479 259.36C300.298 259.994 297.12 260.636 293.941 261.28C292.413 261.588 290.884 261.893 289.355 262.196C287.223 262.618 285.092 263.052 282.962 263.488C281.748 263.732 280.533 263.976 279.282 264.228C277.936 264.61 277.936 264.61 276.563 265C275.289 267.547 275.761 268.428 276.5 271.125C276.854 272.417 277.208 273.708 277.563 275C285.582 274.293 293.352 272.709 301.223 271.059C302.622 270.768 304.022 270.478 305.422 270.188C309.077 269.431 312.731 268.669 316.385 267.905C320.125 267.124 323.866 266.349 327.608 265.572C334.927 264.053 342.245 262.528 349.563 261C349.233 257.7 348.903 254.4 348.563 251C345.177 251 342.228 251.59 338.904 252.253ZM16.8126 253.5C15.6421 253.778 14.4717 254.057 13.2657 254.344C12.3737 254.56 11.4817 254.777 10.5626 255C10.8926 258.96 11.2226 262.92 11.5626 267C17.3551 266.368 22.8886 265.33 28.5626 264C28.2326 260.04 27.9026 256.08 27.5626 252C23.6564 252 20.5946 252.592 16.8126 253.5ZM88.0626 253.938C87.1693 254.12 86.276 254.302 85.3556 254.49C84.5061 254.667 83.6566 254.845 82.7813 255.027C81.6047 255.271 81.6047 255.271 80.4044 255.519C78.5589 255.835 78.5589 255.835 77.5626 257C77.522 258.666 77.5199 260.334 77.5626 262C79.2126 261.67 80.8626 261.34 82.5626 261C82.5626 261.99 82.5626 262.98 82.5626 264C91.0557 262.836 99.286 261.237 107.563 259C104.915 257.539 103.668 257 100.563 257C99.9026 255.35 99.2426 253.7 98.5626 252C95.1 252 91.4396 253.233 88.0626 253.938ZM142.938 254.5C141.749 254.778 140.561 255.057 139.336 255.344C138.421 255.56 137.506 255.777 136.563 256C136.563 258.31 136.563 260.62 136.563 263C140.575 264.06 143.475 263.854 147.52 263.004C148.631 262.775 149.743 262.546 150.889 262.311C152.039 262.064 153.19 261.817 154.375 261.562C155.545 261.32 156.715 261.077 157.92 260.826C160.803 260.226 163.683 259.617 166.563 259C166.563 258.67 166.563 258.34 166.563 258C159.633 257.505 159.633 257.505 152.563 257C152.233 255.68 151.903 254.36 151.563 253C148.576 253 145.84 253.817 142.938 254.5ZM167.563 257C171.563 258 171.563 258 171.563 258L167.563 257ZM66.5626 259C66.8926 261.31 67.2226 263.62 67.5626 266C71.3288 267.255 72.9345 266.371 76.5626 265C76.2326 262.36 75.9026 259.72 75.5626 257C72.4093 257 69.568 258.11 66.5626 259ZM125.375 257.938C124.117 258.288 122.859 258.639 121.563 259C121.563 261.64 121.563 264.28 121.563 267C123.209 266.86 124.855 266.713 126.5 266.562C127.417 266.481 128.333 266.4 129.277 266.316C131.524 266.24 131.524 266.24 132.563 265C132.604 262.667 132.605 260.333 132.563 258C129.345 256.928 128.51 257.064 125.375 257.938ZM41.9376 263.438C41.257 263.572 40.5763 263.707 39.8751 263.846C36.1119 264.592 36.1119 264.592 32.5626 266C32.8926 268.64 33.2226 271.28 33.5626 274C40.4926 272.68 47.4226 271.36 54.5626 270C54.2326 267.36 53.9026 264.72 53.5626 262C49.5193 262 45.8703 262.628 41.9376 263.438ZM98.0001 263.438C97.315 263.572 96.6298 263.707 95.9239 263.846C92.1355 264.589 92.1355 264.589 88.5626 266C88.0974 267.895 88.0974 267.895 87.9376 270.062C87.8138 271.362 87.6901 272.661 87.5626 274C88.9796 273.858 90.3962 273.711 91.8126 273.562C92.6015 273.481 93.3904 273.4 94.2032 273.316C96.3862 273.024 98.4399 272.579 100.563 272C100.893 270.02 101.223 268.04 101.563 266C102.532 265.711 103.501 265.423 104.5 265.125C107.669 264.358 107.669 264.358 108.563 262C104.927 262 101.545 262.716 98.0001 263.438ZM339.379 265.154C338.108 265.411 336.837 265.667 335.527 265.931C334.119 266.219 332.711 266.507 331.303 266.795C329.817 267.096 328.331 267.396 326.845 267.697C322.797 268.516 318.749 269.34 314.701 270.165C310.422 271.037 306.142 271.904 301.863 272.771C293.705 274.425 285.548 276.084 277.392 277.743C268.288 279.596 259.184 281.443 250.079 283.29C233.75 286.603 217.423 289.922 201.096 293.246C192.781 294.939 184.464 296.629 176.147 298.314C171.903 299.175 167.659 300.037 163.415 300.9C161.559 301.277 159.703 301.652 157.847 302.027C155.404 302.521 152.961 303.018 150.518 303.516C149.825 303.655 149.132 303.794 148.418 303.937C144.889 304.659 144.889 304.659 141.563 306C141.893 308.31 142.223 310.62 142.563 313C150.296 312.297 157.79 310.849 165.393 309.291C166.773 309.011 168.152 308.732 169.532 308.453C173.271 307.695 177.009 306.933 180.747 306.17C184.717 305.36 188.687 304.555 192.658 303.75C200.225 302.214 207.791 300.674 215.357 299.132C223.772 297.417 232.189 295.708 240.605 293.998C255.106 291.053 269.606 288.102 284.106 285.147C293.234 283.287 302.363 281.431 311.493 279.583C316.169 278.636 320.844 277.687 325.52 276.738C327.631 276.31 329.742 275.883 331.853 275.458C334.682 274.887 337.51 274.313 340.338 273.738C341.156 273.574 341.975 273.41 342.818 273.241C346.802 272.467 346.802 272.467 350.563 271C350.233 268.69 349.903 266.38 349.563 264C345.897 264 342.953 264.428 339.379 265.154ZM18.3126 268.5C16.6961 268.918 16.6961 268.918 15.047 269.344C14.2271 269.56 13.4073 269.777 12.5626 270C12.5626 272.31 12.5626 274.62 12.5626 277C16.4345 278.447 19.3858 277.544 23.3126 276.562C24.4831 276.275 25.6535 275.988 26.8595 275.691C27.7515 275.463 28.6435 275.235 29.5626 275C29.2326 272.36 28.9026 269.72 28.5626 267C24.7629 267 21.9622 267.548 18.3126 268.5ZM69.5626 270C70.9239 272.586 72.0689 274.608 74.3751 276.438C77.6196 277.272 79.5539 276.344 82.5626 275C84.3995 273.501 84.3995 273.501 85.5626 272C85.2326 271.01 84.9026 270.02 84.5626 269C82.5826 269.66 80.6026 270.32 78.5626 271C78.5626 270.34 78.5626 269.68 78.5626 269C79.2226 268.67 79.8826 268.34 80.5626 268C76.4754 267.76 73.3858 268.577 69.5626 270ZM126.438 269C125.528 269.186 124.617 269.371 123.68 269.562C122.981 269.707 122.282 269.851 121.563 270C120.903 271.98 120.243 273.96 119.563 276C117.648 276.073 117.648 276.073 115.695 276.148C114.026 276.223 112.357 276.299 110.688 276.375C109.425 276.421 109.425 276.421 108.137 276.469C106.928 276.527 106.928 276.527 105.695 276.586C104.58 276.633 104.58 276.633 103.442 276.681C101.322 276.854 101.322 276.854 99.5626 279C99.3957 281.584 99.3957 281.584 99.5626 284C102.619 285.528 104.903 284.496 108.215 283.82C108.871 283.688 109.527 283.556 110.203 283.42C111.591 283.139 112.979 282.854 114.366 282.567C116.487 282.128 118.609 281.698 120.733 281.27C127.719 279.914 127.719 279.914 134.563 278C134.233 274.7 133.903 271.4 133.563 268C131.086 268 128.864 268.502 126.438 269ZM41.6876 275C40.512 275.286 40.512 275.286 39.3126 275.578C37.3944 276.046 35.4783 276.522 33.5626 277C33.8926 279.64 34.2226 282.28 34.5626 285C42.8126 283.35 51.0626 281.7 59.5626 280C58.5726 277.69 57.5826 275.38 56.5626 273C51.3004 272.731 46.7445 273.731 41.6876 275ZM342.647 275.148C341.384 275.402 340.121 275.657 338.82 275.92C337.411 276.206 336.002 276.492 334.593 276.779C333.114 277.078 331.635 277.377 330.156 277.676C326.116 278.493 322.076 279.312 318.036 280.132C313.764 280.999 309.491 281.864 305.219 282.729C297.993 284.192 290.768 285.657 283.544 287.123C276.222 288.608 268.901 290.092 261.579 291.574C221.884 299.609 182.194 307.656 142.563 316C142.233 317.32 141.903 318.64 141.563 320C135.635 321.251 129.788 322.124 123.742 322.543C88.5031 325.161 54.0335 333.566 19.5626 341C19.8926 343.64 20.2226 346.28 20.5626 349C27.7634 348.427 34.7263 347.298 41.7962 345.836C42.8841 345.616 43.9719 345.395 45.0927 345.168C48.7152 344.432 52.3361 343.688 55.9571 342.945C58.5609 342.415 61.1648 341.885 63.7688 341.355C69.3679 340.216 74.9663 339.072 80.5643 337.927C88.7035 336.262 96.8439 334.602 104.985 332.944C108.789 332.169 112.594 331.393 116.398 330.618C117.16 330.463 117.921 330.308 118.706 330.148C124.174 329.034 129.643 327.918 135.111 326.802C156.762 322.384 178.415 317.979 200.07 313.586C201.563 313.283 203.055 312.98 204.548 312.678C211.149 311.338 217.75 309.999 224.351 308.66C233.322 306.841 242.293 305.02 251.263 303.2C251.919 303.067 252.574 302.934 253.249 302.797C260.293 301.367 267.337 299.937 274.38 298.505C276.848 298.003 279.316 297.502 281.785 297C282.994 296.754 284.203 296.508 285.449 296.255C292.444 294.834 299.439 293.418 306.436 292.007C312.194 290.846 317.952 289.682 323.71 288.516C326.119 288.03 328.528 287.544 330.938 287.06C334.231 286.398 337.524 285.732 340.817 285.064C341.797 284.869 342.777 284.673 343.787 284.471C344.672 284.291 345.557 284.111 346.469 283.925C347.626 283.692 347.626 283.692 348.807 283.454C350.577 283.155 350.577 283.155 351.563 282C351.461 280.086 351.461 280.086 351.125 277.938C350.939 276.638 350.754 275.339 350.563 274C347.827 274 345.331 274.604 342.647 275.148ZM89.0626 276.375C88.3729 276.501 87.6833 276.628 86.9727 276.758C82.8451 277.513 82.8451 277.513 79.5626 280C80.2226 280 80.8826 280 81.5626 280C81.5626 282.97 81.5626 285.94 81.5626 289C86.8426 288.01 92.1226 287.02 97.5626 286C97.5626 283.36 97.5626 280.72 97.5626 278C97.8926 277.01 98.2226 276.02 98.5626 275C95.3365 275 92.2188 275.761 89.0626 276.375ZM19.8126 279.438C18.6421 279.725 17.4717 280.012 16.2657 280.309C15.3737 280.537 14.4817 280.765 13.5626 281C13.5626 283.31 13.5626 285.62 13.5626 288C17.4689 289.302 19.758 288.478 23.7501 287.562C25.6585 287.131 25.6585 287.131 27.6056 286.691C29.0693 286.349 29.0693 286.349 30.5626 286C30.5626 283.69 30.5626 281.38 30.5626 279C26.6907 277.553 23.7394 278.456 19.8126 279.438ZM69.8087 280.941C66.3737 282.062 63.2118 282.529 59.6251 282.938C46.728 283.719 46.728 283.719 35.5626 288C35.224 293.327 35.224 293.327 37.5626 298C43.2419 296.884 48.9201 295.763 54.5975 294.637C56.5305 294.254 58.4638 293.873 60.3973 293.493C63.1706 292.948 65.9428 292.399 68.7149 291.848C69.5847 291.678 70.4545 291.508 71.3507 291.333C75.2779 290.857 75.2779 290.857 78.5626 289C78.896 285.542 78.896 285.542 78.5626 282C74.9751 279.608 73.8238 279.569 69.8087 280.941ZM124.899 282.277C123.612 282.544 122.326 282.81 121 283.084C120.334 283.224 119.667 283.364 118.981 283.509C116.939 283.937 114.895 284.359 112.852 284.779C106.539 285.871 106.539 285.871 100.563 288C100.893 289.32 101.223 290.64 101.563 292C102.223 292 102.883 292 103.563 292C104.223 293.32 104.883 294.64 105.563 296C112.549 296.336 118.773 295.072 125.563 293.5C126.623 293.262 127.684 293.023 128.777 292.777C131.374 292.192 133.969 291.597 136.563 291C136.233 287.7 135.903 284.4 135.563 281C131.743 281 128.626 281.504 124.899 282.277ZM227.563 284C227.563 284.33 227.563 284.66 227.563 285C229.213 285 230.863 285 232.563 285C232.563 284.67 232.563 284.34 232.563 284C230.913 284 229.263 284 227.563 284ZM209.305 285.84C207.537 286.017 205.77 286.194 204.003 286.371C203.093 286.464 202.183 286.557 201.245 286.652C187.682 288.031 174.206 289.269 160.574 289.634C153.628 289.869 147.235 290.964 140.563 293C140.893 296.3 141.223 299.6 141.563 303C160.347 299.595 179.065 295.929 197.767 292.094C201.147 291.401 204.528 290.712 207.908 290.021C214.46 288.684 221.012 287.343 227.563 286C227.563 285.67 227.563 285.34 227.563 285C221.402 284.918 215.428 285.194 209.305 285.84ZM350.563 285C282.253 298.86 282.253 298.86 212.563 313C212.563 313.33 212.563 313.66 212.563 314C214.213 314 215.863 314 217.563 314C217.893 316.64 218.223 319.28 218.563 322C219.223 322 219.883 322 220.563 322C220.233 319.36 219.903 316.72 219.563 314C221.543 313.67 223.523 313.34 225.563 313C225.893 315.64 226.223 318.28 226.563 321C227.223 321 227.883 321 228.563 321C228.233 318.36 227.903 315.72 227.563 313C228.883 313 230.203 313 231.563 313C231.893 315.31 232.223 317.62 232.563 320C233.659 316.71 233.362 315.287 232.563 312C234.873 312 237.183 312 239.563 312C239.893 313.98 240.223 315.96 240.563 318C241.883 317.34 243.203 316.68 244.563 316C244.068 313.525 244.068 313.525 243.563 311C245.873 310.67 248.183 310.34 250.563 310C251.058 312.97 251.058 312.97 251.563 316C252.223 315.67 252.883 315.34 253.563 315C253.233 313.35 252.903 311.7 252.563 310C253.883 310 255.203 310 256.563 310C256.563 311.65 256.563 313.3 256.563 315C257.223 314.67 257.883 314.34 258.563 314C258.233 312.35 257.903 310.7 257.563 309C259.213 309 260.863 309 262.563 309C262.563 310.32 262.563 311.64 262.563 313C263.223 312.67 263.883 312.34 264.563 312C264.563 311.01 264.563 310.02 264.563 309C265.553 308.67 266.543 308.34 267.563 308C268.058 309.98 268.058 309.98 268.563 312C268.893 310.68 269.223 309.36 269.563 308C273.523 307.505 273.523 307.505 277.563 307C277.563 307.99 277.563 308.98 277.563 310C279.213 310 280.863 310 282.563 310C282.563 308.68 282.563 307.36 282.563 306C285.203 306 287.843 306 290.563 306C290.563 306.66 290.563 307.32 290.563 308C291.553 307.67 292.543 307.34 293.563 307C293.563 306.34 293.563 305.68 293.563 305C294.562 305.012 295.561 305.023 296.59 305.035C298.525 305.049 298.525 305.049 300.5 305.062C301.788 305.074 303.076 305.086 304.402 305.098C307.426 305.365 307.426 305.365 308.563 304C310.452 303.594 312.353 303.243 314.258 302.914C315.443 302.707 316.628 302.5 317.848 302.286C319.749 301.959 319.749 301.959 321.688 301.625C324.249 301.176 326.81 300.725 329.371 300.273C330.61 300.055 331.848 299.837 333.125 299.612C337.341 298.861 341.549 298.08 345.75 297.25C346.878 297.028 348.006 296.807 349.168 296.578C351.501 296.235 351.501 296.235 352.563 295C352.901 289.673 352.901 289.673 350.563 285ZM20.2501 290.5C19.1815 290.778 18.1128 291.057 17.0118 291.344C16.2036 291.56 15.3953 291.777 14.5626 292C14.8926 295.3 15.2226 298.6 15.5626 302C17.6463 301.69 19.7295 301.377 21.8126 301.062C22.9727 300.888 24.1329 300.714 25.3282 300.535C28.7105 300.02 28.7105 300.02 32.5626 299C32.0676 294.05 32.0676 294.05 31.5626 289C27.2664 289 24.3291 289.424 20.2501 290.5ZM87.3751 289.75C86.5153 289.889 85.6555 290.028 84.7696 290.172C82.3885 290.811 82.3885 290.811 81.2618 293.078C81.0311 293.712 80.8003 294.347 80.5626 295C83.5886 297.9 86.4541 298.796 90.5235 299.215C94.2287 298.824 96.0293 296.597 98.5626 294C98.2326 292.35 97.9026 290.7 97.5626 289C94.0725 288.925 90.814 289.146 87.3751 289.75ZM64.7696 294.496C64.023 294.649 63.2764 294.802 62.5071 294.96C60.9341 295.283 59.3616 295.609 57.7894 295.936C55.3745 296.438 52.9579 296.931 50.5411 297.424C49.013 297.739 47.485 298.055 45.9571 298.371C45.2311 298.519 44.5051 298.667 43.7571 298.819C40.3739 299.304 40.3739 299.304 37.5626 301C37.6522 302.691 37.8084 304.38 38.0001 306.062C38.1019 306.982 38.2038 307.901 38.3087 308.848C38.3925 309.558 38.4763 310.268 38.5626 311C48.6998 309.409 57.9863 307.374 67.1251 302.562C67.8443 302.191 68.5635 301.82 69.3045 301.438C72.444 299.688 74.3352 298.432 76.0274 295.215C76.204 294.484 76.3806 293.753 76.5626 293C72.4555 293 68.7624 293.664 64.7696 294.496ZM100.563 295C99.0776 296.98 99.0776 296.98 97.5626 299C99.2126 298.67 100.863 298.34 102.563 298C101.903 297.01 101.243 296.02 100.563 295ZM126 295.375C125.315 295.501 124.63 295.628 123.924 295.758C119.823 296.519 119.823 296.519 116.563 299C118.913 299.847 121.267 300.678 123.625 301.5C124.282 301.738 124.939 301.977 125.615 302.223C130.064 303.757 133.797 304.248 138.563 304C137.903 300.7 137.243 297.4 136.563 294C132.934 294 129.543 294.678 126 295.375ZM78.5626 297C78.2326 297.66 77.9026 298.32 77.5626 299C77.8926 299.99 78.2226 300.98 78.5626 302C80.5426 302 82.5226 302 84.5626 302C84.5626 301.34 84.5626 300.68 84.5626 300C82.5826 299.01 80.6026 298.02 78.5626 297ZM346.992 298.777C346.096 298.961 345.2 299.145 344.277 299.334C343.34 299.533 342.403 299.732 341.438 299.938C340.493 300.133 339.548 300.328 338.574 300.529C336.236 301.014 333.899 301.504 331.563 302C330.875 304.354 330.875 304.354 330.563 307C331.553 308.485 331.553 308.485 332.563 310C335.689 309.359 338.813 308.711 341.938 308.062C342.827 307.88 343.716 307.698 344.633 307.51C345.909 307.244 345.909 307.244 347.211 306.973C347.997 306.81 348.782 306.648 349.591 306.481C351.622 306.063 351.622 306.063 353.563 305C353.563 303.02 353.563 301.04 353.563 299C350.958 297.698 349.82 298.187 346.992 298.777ZM21.7501 303.5C20.0079 303.918 20.0079 303.918 18.2306 304.344C17.3501 304.56 16.4697 304.777 15.5626 305C15.8926 308.3 16.2226 311.6 16.5626 315C22.7201 314.414 28.5452 313.433 34.5626 312C34.0676 307.05 34.0676 307.05 33.5626 302C29.1794 302 25.9576 302.48 21.7501 303.5ZM99.5626 301C97.2526 301.66 94.9426 302.32 92.5626 303C93.2226 304.98 93.8826 306.96 94.5626 309C97.1251 306.688 97.1251 306.688 99.5626 304C99.5626 303.01 99.5626 302.02 99.5626 301ZM84.5626 304C83.9026 304.66 83.2426 305.32 82.5626 306C83.9374 307.542 83.9374 307.542 85.5626 309C86.2226 309 86.8826 309 87.5626 309C87.8926 307.35 88.2226 305.7 88.5626 304C87.2426 304 85.9226 304 84.5626 304ZM320.563 305C320.893 307.31 321.223 309.62 321.563 312C322.553 311.67 323.543 311.34 324.563 311C324.563 308.69 324.563 306.38 324.563 304C322.488 303.851 322.488 303.851 320.563 305ZM313.563 306C313.563 307.98 313.563 309.96 313.563 312C314.553 312.495 314.553 312.495 315.563 313C315.233 310.69 314.903 308.38 314.563 306C314.233 306 313.903 306 313.563 306ZM307.563 307C307.893 309.31 308.223 311.62 308.563 314C308.893 314 309.223 314 309.563 314C309.563 312.02 309.563 310.04 309.563 308C308.903 307.67 308.243 307.34 307.563 307ZM302.563 308C303.563 311 303.563 311 303.563 311L302.563 308ZM347.211 308.875C346.36 309.055 345.509 309.236 344.633 309.422C343.743 309.613 342.854 309.803 341.938 310C341.04 310.191 340.143 310.382 339.219 310.578C337 311.05 334.781 311.524 332.563 312C332.364 318.084 332.364 318.084 333.563 324C343.691 322.584 343.691 322.584 353.563 320C353.563 316.04 353.563 312.08 353.563 308C351.322 308 349.404 308.407 347.211 308.875ZM290.563 311C290.893 313.31 291.223 315.62 291.563 318C292.553 318 293.543 318 294.563 318C294.233 315.36 293.903 312.72 293.563 310C292.339 309.925 292.339 309.925 290.563 311ZM303.563 312C304.563 315 304.563 315 304.563 315L303.563 312ZM38.5626 314C38.8926 315.65 39.2226 317.3 39.5626 319C42.2026 317.02 44.8426 315.04 47.5626 313C44.362 311.4 41.8399 312.968 38.5626 314ZM277.563 313C277.893 315.64 278.223 318.28 278.563 321C280.213 320.67 281.863 320.34 283.563 320C283.563 317.36 283.563 314.72 283.563 312C281.538 312 279.539 312.595 277.563 313ZM206.563 315C206.652 316.691 206.808 318.38 207 320.062C207.102 320.982 207.204 321.901 207.309 322.848C207.392 323.558 207.476 324.268 207.563 325C208.553 324.67 209.543 324.34 210.563 324C210.233 321.03 209.903 318.06 209.563 315C210.553 314.67 211.543 314.34 212.563 314C209.273 313.633 209.273 313.633 206.563 315ZM321.563 315C321.893 318.63 322.223 322.26 322.563 326C323.883 326 325.203 326 326.563 326C326.233 322.04 325.903 318.08 325.563 314C323.488 313.851 323.488 313.851 321.563 315ZM268.563 315C268.893 317.64 269.223 320.28 269.563 323C270.223 322.67 270.883 322.34 271.563 322C271.233 319.69 270.903 317.38 270.563 315C269.903 315 269.243 315 268.563 315ZM23.3126 316.5C21.4177 316.918 21.4177 316.918 19.4845 317.344C18.5202 317.56 17.556 317.777 16.5626 318C16.8926 321.3 17.2226 324.6 17.5626 328C19.6262 327.716 21.6884 327.422 23.7501 327.125C25.4729 326.881 25.4729 326.881 27.2306 326.633C30.2498 326.059 32.7684 325.252 35.5626 324C35.8319 319.349 35.8319 319.349 34.5626 315C30.5383 315 27.2317 315.629 23.3126 316.5ZM263.563 316C263.893 318.64 264.223 321.28 264.563 324C264.893 324 265.223 324 265.563 324C265.729 321.083 265.729 321.083 265.563 318C264.903 317.34 264.243 316.68 263.563 316ZM314.563 316C314.893 319.96 315.223 323.92 315.563 328C316.223 328 316.883 328 317.563 328C317.449 326.187 317.321 324.374 317.188 322.562C317.118 321.553 317.048 320.544 316.977 319.504C316.84 318.678 316.703 317.851 316.563 317C315.903 316.67 315.243 316.34 314.563 316ZM195.563 317C196.223 320.3 196.883 323.6 197.563 327C198.665 322.592 198.15 321.108 196.563 317C196.233 317 195.903 317 195.563 317ZM257.563 317C257.893 319.64 258.223 322.28 258.563 325C259.223 324.67 259.883 324.34 260.563 324C259.903 321.69 259.243 319.38 258.563 317C258.233 317 257.903 317 257.563 317ZM308.563 317C308.676 318.813 308.804 320.626 308.938 322.438C309.007 323.447 309.077 324.456 309.149 325.496C309.285 326.322 309.422 327.149 309.563 328C310.223 328.33 310.883 328.66 311.563 329C311.233 325.04 310.903 321.08 310.563 317C309.903 317 309.243 317 308.563 317ZM189.563 318C189.893 321.3 190.223 324.6 190.563 328C191.223 328 191.883 328 192.563 328C191.903 324.7 191.243 321.4 190.563 318C190.233 318 189.903 318 189.563 318ZM184.563 319C184.521 320.279 184.48 321.558 184.438 322.875C184.414 323.594 184.391 324.314 184.367 325.055C184.379 327.239 184.379 327.239 186.563 329C186.233 325.7 185.903 322.4 185.563 319C185.233 319 184.903 319 184.563 319ZM252.563 319C252.563 321.31 252.563 323.62 252.563 326C253.223 326 253.883 326 254.563 326C254.563 323.69 254.563 321.38 254.563 319C253.903 319 253.243 319 252.563 319ZM304.563 320C304.563 321.98 304.563 323.96 304.563 326C304.893 326 305.223 326 305.563 326C305.563 324.02 305.563 322.04 305.563 320C305.233 320 304.903 320 304.563 320ZM240.563 322C240.893 323.98 241.223 325.96 241.563 328C242.883 328 244.203 328 245.563 328C245.233 325.36 244.903 322.72 244.563 320C243.1 319.908 243.1 319.908 240.563 322ZM292.563 321C292.542 322.258 292.521 323.516 292.5 324.812C292.488 325.52 292.477 326.228 292.465 326.957C292.48 329.203 292.48 329.203 293.563 332C294.553 332 295.543 332 296.563 332C296.644 327.839 296.545 324.053 295.563 320C294.339 319.925 294.339 319.925 292.563 321ZM173.563 321C172.573 321.495 172.573 321.495 171.563 322C171.893 325.3 172.223 328.6 172.563 332C173.883 331.67 175.203 331.34 176.563 331C176.449 329.52 176.321 328.041 176.188 326.562C176.083 325.327 176.083 325.327 175.977 324.066C175.84 323.384 175.703 322.703 175.563 322C174.903 321.67 174.243 321.34 173.563 321ZM232.563 323C232.893 325.31 233.223 327.62 233.563 330C233.893 330 234.223 330 234.563 330C234.563 327.69 234.563 325.38 234.563 323C233.903 323 233.243 323 232.563 323ZM280.563 323C279.402 327.256 279.801 330.684 280.563 335C282.213 334.67 283.863 334.34 285.563 334C285.233 330.37 284.903 326.74 284.563 323C283.243 323 281.923 323 280.563 323ZM226.563 324C226.893 326.31 227.223 328.62 227.563 331C228.223 331 228.883 331 229.563 331C229.233 328.69 228.903 326.38 228.563 324C227.903 324 227.243 324 226.563 324ZM347.527 323.875C346.719 324.055 345.91 324.236 345.076 324.422C344.226 324.613 343.376 324.803 342.5 325C341.219 325.286 341.219 325.286 339.912 325.578C337.795 326.051 335.679 326.525 333.563 327C333.45 327.962 333.338 328.923 333.223 329.914C333.005 330.932 332.787 331.951 332.563 333C330 334.375 330 334.375 327.563 335C327.233 333.02 326.903 331.04 326.563 329C325.573 329 324.583 329 323.563 329C323.563 330.98 323.563 332.96 323.563 335C314.983 335.99 306.403 336.98 297.563 338C297.563 337.01 297.563 336.02 297.563 335C296.573 335 295.583 335 294.563 335C294.563 336.32 294.563 337.64 294.563 339C291.923 339 289.283 339 286.563 339C286.233 338.34 285.903 337.68 285.563 337C283.587 337.348 283.587 337.348 281.563 338C281.233 338.66 280.903 339.32 280.563 340C277.923 340 275.283 340 272.563 340C272.563 340.66 272.563 341.32 272.563 342C271.841 341.814 271.119 341.629 270.375 341.438C267.324 340.963 265.564 341.341 262.563 342C260.144 342.442 257.724 342.88 255.304 343.315C231.289 347.655 207.376 352.42 183.478 357.361C178.723 358.343 173.967 359.321 169.211 360.299C159.994 362.195 150.778 364.096 141.563 366C141.563 366.33 141.563 366.66 141.563 367C185.457 364.689 227.988 357.248 271.019 348.728C278.284 347.29 285.555 345.877 292.826 344.466C299.84 343.105 306.853 341.735 313.865 340.363C315.354 340.072 316.844 339.781 318.333 339.49C323.187 338.543 328.038 337.587 332.889 336.626C334.715 336.27 334.715 336.27 336.578 335.907C337.695 335.684 338.812 335.461 339.963 335.232C340.929 335.041 341.896 334.85 342.892 334.654C345.607 333.989 348.042 333.208 350.563 332C351.591 329.842 351.591 329.842 351.875 327.375C352.086 326.149 352.086 326.149 352.301 324.898C352.43 323.959 352.43 323.959 352.563 323C350.843 323 349.2 323.501 347.527 323.875ZM218.563 325C218.893 327.64 219.223 330.28 219.563 333C220.223 333 220.883 333 221.563 333C221.772 328.859 221.772 328.859 220.563 325C219.903 325 219.243 325 218.563 325ZM270.563 325C270.893 328.3 271.223 331.6 271.563 335C271.893 335 272.223 335 272.563 335C272.563 332.03 272.563 329.06 272.563 326C271.903 325.67 271.243 325.34 270.563 325ZM148.249 325.98C147.172 326.198 146.096 326.415 144.986 326.639C143.81 326.88 142.634 327.122 141.422 327.371C139.558 327.749 139.558 327.749 137.656 328.134C134.251 328.825 130.846 329.521 127.442 330.217C123.878 330.945 120.314 331.669 116.749 332.394C110.763 333.611 104.778 334.831 98.7931 336.053C90.3553 337.776 81.9163 339.494 73.4772 341.21C67.6296 342.4 61.7823 343.591 55.935 344.782C54.5178 345.071 53.1006 345.36 51.6834 345.648C47.023 346.598 42.363 347.548 37.7032 348.5C35.9389 348.859 35.9389 348.859 34.1389 349.226C32.5238 349.556 32.5238 349.556 30.8761 349.893C29.941 350.084 29.006 350.274 28.0426 350.471C25.8721 350.934 23.7157 351.462 21.5626 352C22.2226 355.3 22.8826 358.6 23.5626 362C27.9085 361.407 32.2363 360.72 36.5626 360C37.3599 359.871 38.1572 359.742 38.9786 359.609C41.5333 359.185 44.0786 358.721 46.6251 358.25C47.446 358.118 48.2669 357.985 49.1126 357.849C53.4679 357.003 55.0836 356.601 57.9454 353.008C58.4791 352.015 59.0127 351.023 59.5626 350C63.9638 346.283 66.8422 345.542 72.5626 346C72.5626 346.66 72.5626 347.32 72.5626 348C75.5345 346.875 77.897 345.777 80.5626 344C84.8101 343.691 87.9212 343.67 91.5626 346C92.8001 345.041 92.8001 345.041 94.0626 344.062C97.8954 341.519 100.972 341.074 105.563 341C107.805 342.496 107.805 342.496 109.563 344C110.275 343.446 110.988 342.891 111.723 342.32C121.236 335.125 121.236 335.125 127.563 334C126.114 337.38 124.189 339.459 121.563 342C134.029 340.369 146.276 337.624 158.563 335C158.233 331.7 157.903 328.4 157.563 325C154.17 325 151.538 325.311 148.249 325.98ZM265.563 326C264.202 328.722 264.859 330.183 265.5 333.125C265.695 334.035 265.889 334.945 266.09 335.883C266.246 336.581 266.402 337.28 266.563 338C266.893 338 267.223 338 267.563 338C267.233 334.04 266.903 330.08 266.563 326C266.233 326 265.903 326 265.563 326ZM208.563 327C208.353 331.141 208.353 331.141 209.563 335C210.553 334.67 211.543 334.34 212.563 334C212.233 331.69 211.903 329.38 211.563 327C210.573 327 209.583 327 208.563 327ZM35.5626 327C33.1035 327.476 30.6454 327.955 28.1876 328.438C27.1396 328.64 27.1396 328.64 26.0704 328.846C22.2063 329.577 22.2063 329.577 18.5626 331C18.5626 333.31 18.5626 335.62 18.5626 338C26.2571 337.432 33.6543 336.071 41.1876 334.438C42.2872 334.204 43.3867 333.97 44.5196 333.729C47.2017 333.157 49.8826 332.581 52.5626 332C52.5626 331.67 52.5626 331.34 52.5626 331C51.1897 331.017 51.1897 331.017 49.7892 331.035C48.0064 331.049 48.0064 331.049 46.1876 331.062C45.0042 331.074 43.8209 331.086 42.6017 331.098C39.5626 331 39.5626 331 37.5626 330C36.9026 329.01 36.2426 328.02 35.5626 327ZM259.563 328C260.223 331.63 260.883 335.26 261.563 339C262.7 334.45 261.991 332.369 260.563 328C260.233 328 259.903 328 259.563 328ZM305.563 328C306.563 330 306.563 330 306.563 330L305.563 328ZM198.563 329C197.132 331.862 197.963 333.934 198.563 337C199.223 337 199.883 337 200.563 337C200.233 334.36 199.903 331.72 199.563 329C199.233 329 198.903 329 198.563 329ZM253.563 329C253.893 331.64 254.223 334.28 254.563 337C254.893 337 255.223 337 255.563 337C255.563 334.36 255.563 331.72 255.563 329C254.903 329 254.243 329 253.563 329ZM191.563 331C191.396 333.917 191.396 333.917 191.563 337C192.223 337.66 192.883 338.32 193.563 339C193.563 336.69 193.563 334.38 193.563 332C192.903 331.67 192.243 331.34 191.563 331ZM242.563 331C242.893 334.63 243.223 338.26 243.563 342C244.553 342 245.543 342 246.563 342C246.563 338.7 246.563 335.4 246.563 332C245.243 331.67 243.923 331.34 242.563 331ZM316.563 331C317.563 335 317.563 335 317.563 335L316.563 331ZM185.563 332C185.893 334.64 186.223 337.28 186.563 340C187.223 339.67 187.883 339.34 188.563 339C188.233 336.69 187.903 334.38 187.563 332C186.903 332 186.243 332 185.563 332ZM310.563 332C311.563 335 311.563 335 311.563 335L310.563 332ZM234.563 333C234.386 337.602 234.454 339.784 236.563 344C236.233 340.37 235.903 336.74 235.563 333C235.233 333 234.903 333 234.563 333ZM172.563 335C172.893 337.64 173.223 340.28 173.563 343C175.213 342.67 176.863 342.34 178.563 342C178.233 339.36 177.903 336.72 177.563 334C174.637 333.776 174.637 333.776 172.563 335ZM227.563 334C227.677 335.459 227.804 336.917 227.938 338.375C228.007 339.187 228.077 339.999 228.149 340.836C228.392 343.203 228.392 343.203 230.563 345C230.687 339.422 230.687 339.422 229.563 334C228.903 334 228.243 334 227.563 334ZM272.563 335C273.563 337 273.563 337 273.563 337L272.563 335ZM220.563 336C220.893 339.63 221.223 343.26 221.563 347C222.223 346.67 222.883 346.34 223.563 346C223.233 342.7 222.903 339.4 222.563 336C221.903 336 221.243 336 220.563 336ZM255.563 337C256.563 340 256.563 340 256.563 340L255.563 337ZM209.563 338C210.223 341.63 210.883 345.26 211.563 349C212.553 348.67 213.543 348.34 214.563 348C213.903 344.7 213.243 341.4 212.563 338C211.573 338 210.583 338 209.563 338ZM332.376 338.469C331.566 338.625 330.755 338.781 329.92 338.942C327.252 339.457 324.585 339.978 321.918 340.5C320.064 340.859 318.211 341.218 316.357 341.576C311.485 342.519 306.614 343.467 301.744 344.417C296.771 345.386 291.796 346.349 286.822 347.312C277.068 349.203 267.315 351.1 257.563 353C257.563 353.33 257.563 353.66 257.563 354C269.503 353.442 281.275 351.814 293.102 350.154C296.422 349.69 299.744 349.24 303.066 348.791C325.125 346.118 325.125 346.118 345.563 338C345.563 337.67 345.563 337.34 345.563 337C341.036 336.791 336.793 337.597 332.376 338.469ZM137.928 341.143C136.106 341.505 134.283 341.859 132.458 342.205C129.815 342.706 127.177 343.231 124.539 343.762C123.73 343.911 122.92 344.06 122.086 344.214C116.579 345.36 113.671 347.172 109.563 351C107.188 351.812 107.188 351.812 105.563 352C105.068 350.515 105.068 350.515 104.563 349C103.145 349.115 101.729 349.243 100.313 349.375C99.5237 349.445 98.7348 349.514 97.922 349.586C95.5553 349.881 95.5553 349.881 93.5977 351.008C91.0814 352.235 89.0373 352.342 86.2501 352.5C81.7575 352.756 77.8815 353.751 73.5626 355C71.0208 355.452 68.4893 355.867 65.9376 356.25C57.9181 357.528 49.95 359.046 41.9923 360.66C40.6641 360.928 39.3353 361.194 38.0059 361.456C36.1259 361.828 34.2485 362.212 32.3712 362.598C31.276 362.819 30.1809 363.041 29.0526 363.27C27.82 363.631 27.82 363.631 26.5626 364C26.2326 364.66 25.9026 365.32 25.5626 366C27.0672 369.134 27.0672 369.134 29.5626 372C35.9104 372.716 42.0321 371.049 48.2176 369.721C49.3729 369.479 50.5282 369.236 51.7184 368.987C54.8701 368.325 58.0204 367.656 61.1702 366.985C64.4731 366.282 67.7777 365.588 71.0821 364.892C76.6268 363.724 82.1704 362.551 87.7132 361.374C95.5268 359.715 103.342 358.065 111.158 356.416C122.205 354.086 133.251 351.752 144.296 349.408C145.383 349.178 146.47 348.948 147.591 348.711C148.587 348.499 149.584 348.288 150.611 348.069C151.476 347.886 152.341 347.702 153.231 347.513C155.353 347.046 157.458 346.539 159.563 346C159.772 341.859 159.772 341.859 158.563 338C151.593 338 144.746 339.777 137.928 341.143ZM199.563 340C200.563 342 200.563 342 200.563 342L199.563 340ZM192.563 342C192.893 344.31 193.223 346.62 193.563 349C193.893 349 194.223 349 194.563 349C194.563 346.69 194.563 344.38 194.563 342C193.903 342 193.243 342 192.563 342ZM187.563 343C187.563 344.65 187.563 346.3 187.563 348C187.893 348 188.223 348 188.563 348C188.563 346.35 188.563 344.7 188.563 343C188.233 343 187.903 343 187.563 343ZM200.563 343C200.563 344.65 200.563 346.3 200.563 348C200.893 348 201.223 348 201.563 348C201.563 346.35 201.563 344.7 201.563 343C201.233 343 200.903 343 200.563 343ZM81.5626 348C81.2326 348.66 80.9026 349.32 80.5626 350C82.2126 350 83.8626 350 85.5626 350C85.5626 349.34 85.5626 348.68 85.5626 348C84.2426 348 82.9226 348 81.5626 348ZM63.9376 351.5C63.1538 352.325 62.3701 353.15 61.5626 354C64.2026 353.67 66.8426 353.34 69.5626 353C69.2326 351.68 68.9026 350.36 68.5626 349C66.1998 348.77 66.1998 348.77 63.9376 351.5ZM174.563 345C174.353 349.141 174.353 349.141 175.563 353C173.437 352.913 171.312 352.805 169.188 352.688C168.004 352.629 166.821 352.571 165.602 352.512C164.097 352.258 164.097 352.258 162.563 352C161.573 350.515 161.573 350.515 160.563 349C153.222 349.566 146.156 350.774 138.962 352.317C137.849 352.551 136.736 352.785 135.589 353.026C131.941 353.795 128.295 354.571 124.649 355.348C122.107 355.885 119.565 356.421 117.024 356.958C111.038 358.222 105.053 359.49 99.0688 360.761C92.2497 362.209 85.4294 363.651 78.609 365.092C64.5921 368.055 50.5768 371.025 36.5626 374C36.8926 374.66 37.2226 375.32 37.5626 376C52.5375 376.245 67.2387 375.79 82.129 374.176C83.1134 374.071 84.0978 373.967 85.1121 373.86C109.749 371.19 133.87 366.131 158.073 360.922C163.912 359.671 169.756 358.447 175.6 357.221C186.926 354.84 198.246 352.43 209.563 350C209.563 349.67 209.563 349.34 209.563 349C207.166 348.946 204.772 348.906 202.375 348.875C201.702 348.858 201.028 348.841 200.334 348.824C196.275 348.785 193.213 349.2 189.563 351C189.233 350.34 188.903 349.68 188.563 349C188.233 349.66 187.903 350.32 187.563 351C185.253 351 182.943 351 180.563 351C179.573 348.03 179.573 348.03 178.563 345C177.243 345 175.923 345 174.563 345ZM251.563 354C255.563 355 255.563 355 255.563 355L251.563 354Z" fill="#D9B5B5"/>
<path d="M349.562 0C350.883 0 352.202 0 353.562 0C353.646 4.83335 353.515 9.23693 352.562 14C353.656 13.505 354.749 13.01 355.875 12.5C359.562 11 359.562 11 362.562 11C361.465 13.9932 360.886 14.8461 357.938 16.25C357.154 16.4975 356.37 16.745 355.562 17C355.562 17.66 355.562 18.32 355.562 19C356.553 19.33 357.543 19.66 358.562 20C358.893 20.99 359.222 21.98 359.562 23C356.562 24 356.562 24 351.562 22C350.572 25.96 349.582 29.92 348.562 34C347.572 34 346.582 34 345.562 34C345.438 26.375 345.438 26.375 346.562 23C344.253 23.66 341.943 24.32 339.562 25C339.562 21 339.562 21 341.562 18.75C342.223 18.1725 342.882 17.595 343.562 17C342.902 16.5669 342.243 16.1337 341.562 15.6875C340.902 15.1306 340.243 14.5738 339.562 14C339.562 13.01 339.562 12.02 339.562 11C341.264 11.2784 341.264 11.2784 343 11.5625C344.176 11.7069 345.351 11.8512 346.562 12C348.299 10.2639 348.219 7.79451 348.625 5.4375C348.802 4.42559 348.978 3.41367 349.16 2.37109C349.293 1.58863 349.426 0.806172 349.562 0Z" fill="#D9B5B5"/>
<path d="M95.5625 15C96.8825 15.33 98.2025 15.66 99.5625 16C99.5625 18.31 99.5625 20.62 99.5625 23C100.346 22.4844 101.13 21.9688 101.938 21.4375C103.237 20.7259 103.237 20.7259 104.562 20C105.223 20.33 105.882 20.66 106.562 21C104.582 23.97 104.582 23.97 102.562 27C103.8 27.6806 103.8 27.6806 105.062 28.375C105.887 28.9112 106.712 29.4475 107.562 30C107.562 30.66 107.562 31.32 107.562 32C104.922 31.67 102.283 31.34 99.5625 31C99.5625 34.96 99.5625 38.92 99.5625 43C98.9025 43 98.2425 43 97.5625 43C96.9025 40.03 96.2425 37.06 95.5625 34C94.9025 34 94.2425 34 93.5625 34C92.2425 34 90.9225 34 89.5625 34C90.0685 31.8313 90.5623 30.0003 91.5625 28C89.9125 27.67 88.2625 27.34 86.5625 27C86.8925 26.01 87.2225 25.02 87.5625 24C90.2025 24.33 92.8425 24.66 95.5625 25C95.5625 21.7 95.5625 18.4 95.5625 15Z" fill="#D9B5B5"/>
<path d="M324.562 75C326.543 75.66 328.523 76.32 330.562 77C331.885 82.4114 331.885 82.4114 330.5 84.9375C327.652 86.4995 325.627 85.7492 322.562 85C321.902 83.02 321.243 81.04 320.562 79C321.883 77.68 323.202 76.36 324.562 75ZM324.562 79C324.893 80.32 325.222 81.64 325.562 83C326.223 82.67 326.882 82.34 327.562 82C327.562 81.01 327.562 80.02 327.562 79C326.572 79 325.582 79 324.562 79Z" fill="#D9B5B5"/>
<path d="M34.5625 91.9999C35.2225 93.9799 35.8825 95.9599 36.5625 97.9999C34.875 100.062 34.875 100.062 32.5625 102C29.9375 102 29.9375 102 27.5625 101C25.6647 98.5846 25.5275 97.3756 25.8125 94.3124C26.06 93.5493 26.3075 92.7862 26.5625 91.9999C29.4242 90.569 31.4962 91.4 34.5625 91.9999ZM29.5625 93.9999C29.2325 94.6599 28.9025 95.3199 28.5625 95.9999C28.8925 96.6599 29.2225 97.3199 29.5625 97.9999C30.5525 97.9999 31.5425 97.9999 32.5625 97.9999C32.2325 96.6799 31.9025 95.3599 31.5625 93.9999C30.9025 93.9999 30.2425 93.9999 29.5625 93.9999Z" fill="#D9B5B5"/>
<path d="M68.5625 246C70.2125 246 71.8625 246 73.5625 246C72.9025 247.32 72.2425 248.64 71.5625 250C70.5725 250 69.5825 250 68.5625 250C68.5625 248.68 68.5625 247.36 68.5625 246Z" fill="#D9B5B5"/>
</svg>
