<svg width="370" height="381" viewBox="0 0 370 381" fill="none" xmlns="http://www.w3.org/2000/svg">
<path d="M179 33.2527C181.389 34.6443 183.625 36.2101 185.875 37.8152C193.565 43.1116 201.573 47.6423 209.793 52.0588C211.853 53.173 213.896 54.3118 215.938 55.4597C239.927 68.7856 266.116 78.8783 292.82 85.1511C293.47 85.304 294.12 85.4569 294.789 85.6145C297.902 86.3402 301.019 87.0362 304.146 87.6953C314.41 89.9657 323.315 93.9716 331 101.253C341.606 122.464 321.137 170.576 314.316 191.456C310.222 203.679 305.271 215.496 300 227.253C299.647 228.05 299.294 228.848 298.931 229.67C286.655 257.277 269.89 283.616 249.289 305.78C247.366 307.857 245.517 309.969 243.688 312.128C236.147 320.794 227.787 328.863 219 336.253C218.107 337.035 217.213 337.818 216.293 338.624C170.464 378.548 170.464 378.548 149.399 380.604C129.821 378.579 101.957 347.091 89.961 332.678C87.2129 329.272 84.5967 325.775 82.0001 322.253C81.5898 321.709 81.1796 321.164 80.7569 320.604C72.0131 309.004 63.5926 296.519 57.6954 283.218C53.5197 273.813 50.8814 268.603 40.9181 264.639C36.3844 262.485 34.582 259.732 32.7696 255.124C32.2959 253.424 32.2959 253.424 31.8126 251.69C31.489 250.575 31.1655 249.46 30.8321 248.311C28.5452 238.4 28.9484 228.172 29.0963 218.072C29.2608 205.529 28.859 193.444 26.754 181.042C24.8068 169.307 24.7585 157.49 24.7501 145.628C24.7494 144.769 24.7487 143.91 24.748 143.025C24.7664 128.27 25.5119 113.823 28.0001 99.2527C28.177 98.2009 28.3539 97.1492 28.5362 96.0657C29.084 92.9507 29.6835 89.8521 30.3126 86.7527C30.5769 85.3526 30.5769 85.3526 30.8465 83.9243C31.0377 83.0736 31.2289 82.2229 31.4259 81.3464C31.5848 80.6007 31.7438 79.855 31.9076 79.0867C33.0001 77.2527 33.0001 77.2527 35.6961 76.0708C38.9381 75.268 42.142 74.6108 45.4376 74.0691C46.6635 73.8635 47.8894 73.6579 49.1524 73.446C50.4222 73.2378 51.6919 73.0297 53.0001 72.8152C58.0055 71.9896 63.0044 71.1351 68.0001 70.2527C69.2785 70.0401 70.5569 69.8276 71.8741 69.6086C80.8864 68.0249 80.8864 68.0249 87.2501 62.0027C97.3754 49.5065 112.198 42.6002 128 40.2527C135.629 39.4567 143.164 39.0942 150.813 39.6902C156.861 39.8198 160.769 36.6064 165.469 33.1003C170.551 29.3909 173.684 30.7602 179 33.2527ZM170 34.2527C167.03 36.5627 164.06 38.8727 161 41.2527C164.335 42.9202 167.504 44.1848 171 45.4402C186.314 51.3288 197.339 59.6003 205 74.2527C205.254 74.8907 205.507 75.5287 205.768 76.186C208.301 82.1704 211.298 84.2085 217.188 86.6902C218.015 87.058 218.842 87.4257 219.695 87.8047C240.068 96.6575 261.841 104.552 284 107.253C278.71 143.58 268.33 177.907 253 211.253C252.253 212.911 251.505 214.57 250.758 216.229C244.721 229.456 238.085 242.867 229.125 254.378C225.564 259.177 224.213 264.445 222.86 270.191C221.567 275.396 219.884 278.488 216 282.253C213.52 283.3 213.52 283.3 210.813 284.003C203.133 286.893 198.379 292.485 192.788 298.314C186.8 304.54 180.581 309.903 173.643 315.025C171.972 316.274 170.335 317.559 168.703 318.858C145.422 337.33 145.422 337.33 135 336.253C127.457 332.469 121.074 326.013 115 320.253C114.187 319.492 113.373 318.732 112.535 317.948C102.675 308.446 94.6536 297.624 87.2599 286.139C84.0009 281.097 82.0329 278.275 76.1837 276.612C75.2549 276.346 74.3261 276.081 73.3692 275.807C72.4018 275.542 71.4343 275.276 70.4376 275.003C69.4663 274.722 68.495 274.441 67.4942 274.151C62.6809 272.412 62.6809 272.412 58.0001 273.253C68.5358 297.032 82.4416 316.97 100.02 336.085C101.919 338.164 103.742 340.292 105.563 342.44C109.074 346.448 112.875 349.887 117 353.253C117.504 353.669 118.008 354.085 118.527 354.514C120.215 355.9 121.918 357.266 123.625 358.628C124.163 359.069 124.702 359.51 125.256 359.965C128.796 362.735 131.475 364.206 136 364.253C172.404 351.367 209.115 315.016 232 285.253C233.267 283.746 233.267 283.746 234.559 282.21C249.056 264.924 261.786 245.353 272 225.253C272.699 223.898 272.699 223.898 273.411 222.516C292.61 185.017 309.867 137.054 309 94.2527C306.217 92.7446 303.702 91.8438 300.606 91.2097C299.745 91.0271 298.884 90.8444 297.997 90.6562C297.07 90.4612 296.143 90.2661 295.188 90.0652C253.577 80.8799 211.919 63.3219 177.188 38.4675C173.967 36.1167 173.967 36.1167 170 34.2527ZM128.188 45.9402C126.874 46.2114 126.874 46.2114 125.534 46.488C110.831 49.6771 96.6402 56.3924 88.0001 69.2527C80.4046 82.1494 76.1074 95.4427 74.0001 110.253C77.6251 110.282 81.25 110.299 84.8751 110.315C85.9076 110.324 86.9402 110.332 88.004 110.341C88.9901 110.344 89.9763 110.347 90.9923 110.35C91.9035 110.356 92.8147 110.361 93.7535 110.366C96.037 110.402 96.037 110.402 98.0001 109.253C98.3739 107.12 98.6479 104.969 98.8751 102.815C100.441 91.1946 103.944 83.0459 113 75.2527C125.676 67.2847 138.818 64.9863 153.5 67.4011C163.484 69.8303 171.889 74.8328 177.461 83.5339C183.179 93.9791 183.307 104.578 183 116.253C185.916 116.757 188.833 117.256 191.75 117.753C192.575 117.896 193.4 118.039 194.25 118.186C195.049 118.322 195.849 118.457 196.672 118.596C197.405 118.722 198.138 118.848 198.894 118.977C201.307 119.339 201.307 119.339 205 119.253C208.592 104.826 206.8 85.5102 199.555 72.5847C189.167 57.0035 173.271 49.6295 155.566 45.4402C146.154 43.7135 137.534 44.0092 128.188 45.9402ZM112 81.2527C115.402 82.3866 115.987 82.1459 119.203 80.9245C120.019 80.619 120.835 80.3135 121.676 79.9988C122.525 79.67 123.375 79.3413 124.25 79.0027C125.084 78.6894 125.918 78.3762 126.777 78.0534C131.574 76.2389 136.303 74.3093 141 72.2527C141 71.9227 141 71.5927 141 71.2527C129.532 70.3571 120.667 73.8024 112 81.2527ZM72.8087 75.0574C71.5264 75.3128 71.5264 75.3128 70.2181 75.5735C69.3005 75.7564 68.383 75.9392 67.4376 76.1277C59.6999 77.6519 52.0135 78.873 44.1561 79.5686C40.1407 79.874 40.1407 79.874 37.0001 82.2527C36.3867 84.2236 36.3867 84.2236 36.0001 86.5144C35.8361 87.3786 35.6722 88.2429 35.5033 89.1333C35.3372 90.0596 35.1712 90.9858 35.0001 91.9402C34.8257 92.889 34.6512 93.8378 34.4715 94.8154C31.3481 112.103 29.8188 129.239 29.8751 146.815C29.8712 148.026 29.8674 149.237 29.8634 150.485C29.8719 158.451 30.2722 166.32 31.0001 174.253C33.0337 171.202 33.41 169.768 33.9298 166.237C34.0831 165.24 34.2364 164.244 34.3944 163.217C34.6323 161.626 34.6323 161.626 34.8751 160.003C40.1769 126.629 40.1769 126.629 48.5509 117.46C51.6883 113.848 52.1537 110.139 52.7501 105.503C53.9383 97.3762 53.9383 97.3762 55.0001 95.2527C56.974 94.9842 58.9497 94.7244 60.9312 94.5195C68.1565 93.9308 68.1565 93.9308 73.9102 90.1159C74.9015 87.4954 75.4894 85.0048 76.0001 82.2527C76.5534 80.7 77.1342 79.1566 77.7501 77.6277C78.3688 75.957 78.3688 75.957 79.0001 74.2527C76.8186 74.2527 74.9476 74.6222 72.8087 75.0574ZM314 95.2527C313.881 96.0294 313.762 96.8061 313.639 97.6064C313.095 101.155 312.547 104.704 312 108.253C311.828 109.375 311.656 110.498 311.479 111.655C305.792 148.434 297.686 184.744 281 218.253C280.581 219.101 280.163 219.949 279.732 220.823C267.466 245.481 252.229 268.282 234.559 289.385C233.109 291.122 231.678 292.873 230.25 294.628C224.042 302.162 217.316 309.141 210.438 316.065C209.575 316.937 208.713 317.808 207.824 318.707C201.858 324.644 195.591 330.024 189 335.253C187.796 336.23 186.593 337.208 185.391 338.186C173.596 347.645 161.301 355.767 147.989 362.942C144.463 364.846 141.113 366.698 138 369.253C139.444 370.685 140.932 372.072 142.438 373.44C143.261 374.217 144.085 374.995 144.934 375.796C148.372 377.429 148.894 377.346 152.356 376.264C156.75 374.503 160.833 372.331 164.875 369.878C165.594 369.447 166.313 369.016 167.054 368.573C183.889 358.35 200.042 346.894 214.524 333.518C216.586 331.631 218.678 329.798 220.793 327.971C224.998 324.3 228.994 320.452 232.938 316.503C233.987 315.452 233.987 315.452 235.057 314.381C239.648 309.736 243.914 305.004 247.945 299.862C250.134 297.083 252.437 294.428 254.75 291.753C295.659 242.612 319.038 179.097 327 116.253C327.162 115.171 327.324 114.089 327.491 112.975C328.481 106.913 328.481 106.913 326.051 101.62C325.147 101.127 324.244 100.635 323.313 100.128C322.422 99.6095 321.531 99.0913 320.613 98.5574C319.751 98.1268 318.889 97.6963 318 97.2527C316.667 96.5861 315.333 95.9194 314 95.2527ZM49.6876 123.003C33.7729 144.252 34.6699 185.046 34.0001 210.253C33.9782 210.929 33.9563 211.605 33.9337 212.301C33.6801 220.813 34.1132 229.211 34.8126 237.69C34.8826 238.602 34.9526 239.514 35.0247 240.453C35.7041 247.862 36.4477 255.508 42.4376 260.503C59.1252 271.389 80.8469 274.144 100.063 278.003C100.8 278.151 101.538 278.3 102.298 278.453C115.478 281.095 128.599 283.408 142.063 283.878C143.017 283.915 143.972 283.952 144.956 283.99C181.893 287.139 181.893 287.139 215.375 276.19C224.941 258.898 226.268 234.563 229.25 215.19C229.375 214.387 229.499 213.584 229.628 212.757C232.246 195.77 234.358 178.902 234.313 161.69C234.329 160.429 234.345 159.167 234.361 157.868C234.366 149.753 234.181 141.704 229.309 134.885C228.382 134.139 228.382 134.139 227.438 133.378C226.838 132.865 226.239 132.352 225.621 131.823C218.871 127.779 211.583 125.625 203.875 124.315C202.973 124.157 202.07 123.998 201.14 123.835C191.174 122.164 181.149 120.897 171.125 119.628C170.309 119.523 169.493 119.419 168.652 119.312C146.97 116.562 125.499 114.925 103.632 115.047C100.21 115.065 96.7889 115.067 93.3673 115.067C91.1459 115.072 88.9246 115.078 86.7032 115.085C85.703 115.086 84.7028 115.087 83.6723 115.088C65.3656 114.774 65.3656 114.774 49.6876 123.003Z" fill="#D9B5B5"/>
<path d="M152.992 152.51C158.697 157.46 162.64 163.322 163.336 170.925C163.595 182.522 161.708 189.954 153.746 198.6C151.689 200.547 149.464 201.876 147 203.253C145.867 206.653 145.638 209.654 145.352 213.229C145.232 214.637 145.112 216.044 144.992 217.452C144.808 219.656 144.626 221.861 144.453 224.067C142.89 243.77 142.89 243.77 137.563 250.19C133.954 253.095 131.445 254.655 126.75 254.19C121.7 253.474 117.84 251.605 114 248.253C107.884 239.177 109.35 226.086 110.66 215.698C110.834 214.242 110.834 214.242 111.011 212.757C111.25 210.828 111.517 208.902 111.816 206.981C112.502 201.885 112.502 201.885 110.782 197.2C109.257 195.465 107.647 193.87 106 192.253C101.244 183.991 99.6957 175.632 102.125 166.315C105.067 157.341 110.665 151.569 119 147.253C130.521 142.74 143.163 145.429 152.992 152.51ZM112.164 157.921C106.694 163.815 105.212 170.17 105.477 178.116C106.527 184.413 109.38 190.938 114.215 195.21C116 197.253 116 197.253 116.207 200.171C116.077 201.25 115.947 202.329 115.813 203.44C115.695 204.506 115.578 205.572 115.457 206.671C115.231 208.444 115.231 208.444 115 210.253C114.206 216.475 113.791 222.604 113.75 228.878C113.729 229.685 113.709 230.492 113.688 231.323C113.652 236.736 114.341 240.498 117 245.253C118.299 246.297 119.629 247.306 121 248.253C121.015 247.521 121.029 246.789 121.044 246.035C121.121 242.524 121.215 239.013 121.313 235.503C121.347 234.207 121.381 232.911 121.416 231.576C121.629 224.781 122.068 218.114 122.981 211.374C123.23 209.501 123.23 209.501 123.485 207.59C123.822 205.202 124.192 202.819 124.599 200.443C125.549 194.38 125.549 194.38 123.551 188.785C121.797 186.796 119.948 185.047 118 183.253C115.132 177.766 115.149 171.289 116 165.253C117.66 160.723 119.703 156.491 122 152.253C117.427 152.253 115.412 154.9 112.164 157.921Z" fill="#D9B5B5"/>
<path d="M206 136.253C207.938 136.565 207.938 136.565 210 137.253C215.574 153.976 210.415 177.724 208.75 195.003C208.521 197.465 208.292 199.928 208.063 202.391C206.836 215.427 205.523 228.45 203.875 241.44C203.729 242.593 203.583 243.746 203.433 244.933C202.405 252.489 200.826 259.851 199 267.253C198.01 267.253 197.02 267.253 196 267.253C196.559 254.524 197.65 241.896 198.988 229.227C199.329 225.993 199.663 222.757 199.996 219.521C200.94 210.336 201.891 201.152 202.858 191.969C203.453 186.315 204.036 180.66 204.612 175.003C204.832 172.867 205.056 170.732 205.284 168.597C206.453 157.668 207.552 147.202 206 136.253Z" fill="#D9B5B5"/>
<path d="M13 309.253C14.957 309.389 14.957 309.389 17 310.253C18.0117 312.397 18.0117 312.397 18.6875 315.065C18.9182 315.938 19.149 316.811 19.3867 317.71C19.5891 318.549 19.7915 319.388 20 320.253C20.1921 321.02 20.3841 321.787 20.582 322.577C20.72 323.13 20.8579 323.683 21 324.253C21.4589 323.747 21.9178 323.242 22.3906 322.721C23.0042 322.072 23.6178 321.422 24.25 320.753C24.8533 320.103 25.4566 319.453 26.0781 318.784C28 317.253 28 317.253 32 317.253C32.3919 320.651 32.1542 322.017 30.25 324.928C29.5075 325.799 28.765 326.669 28 327.565C27.2575 328.448 26.515 329.331 25.75 330.241C24.8838 331.237 24.8838 331.237 24 332.253C24.6987 332.495 25.3973 332.737 26.1172 332.987C27.0273 333.322 27.9373 333.657 28.875 334.003C29.7799 334.328 30.6848 334.652 31.6172 334.987C34.3334 336.43 35.0948 337.342 36 340.253C35.67 340.913 35.34 341.573 35 342.253C30.4519 342.431 27.1206 342.251 23 340.253C23.33 340.913 23.66 341.573 24 342.253C24.0695 343.793 24.0845 345.336 24.0625 346.878C24.0535 347.695 24.0445 348.512 24.0352 349.354C24.0236 349.981 24.012 350.607 24 351.253C22.68 351.253 21.36 351.253 20 351.253C18.515 346.303 18.515 346.303 17 341.253C16.2575 341.995 15.515 342.738 14.75 343.503C13.8425 344.41 12.935 345.318 12 346.253C11.3194 347.036 10.6388 347.82 9.9375 348.628C9.29813 349.164 8.65875 349.7 8 350.253C5.75 350.003 5.75 350.003 4 349.253C4.40208 343.624 6.2893 341.249 10 337.253C9.04287 336.746 9.04287 336.746 8.06641 336.229C7.24012 335.783 6.41383 335.337 5.5625 334.878C4.73879 334.437 3.91508 333.996 3.06641 333.542C1 332.253 1 332.253 0 330.253C0.33 329.593 0.66 328.933 1 328.253C2.21687 328.232 3.43375 328.211 4.6875 328.19C5.37199 328.179 6.05648 328.167 6.76172 328.155C9.25492 328.264 11.5671 328.712 14 329.253C13.8556 328.3 13.7113 327.347 13.5625 326.366C13.3769 325.112 13.1912 323.857 13 322.565C12.8144 321.324 12.6287 320.082 12.4375 318.803C12.0781 315.887 11.8261 313.182 12 310.253C12.33 309.923 12.66 309.593 13 309.253Z" fill="#D9B5B5"/>
<path d="M281 7.25269C282.922 7.40503 282.922 7.40503 285 8.25269C286.266 10.3191 286.266 10.3191 287.25 12.8152C287.585 13.6415 287.92 14.4678 288.266 15.3191C288.508 15.9572 288.75 16.5953 289 17.2527C289.531 16.8917 290.062 16.5308 290.609 16.1589C291.316 15.6949 292.022 15.2308 292.75 14.7527C293.446 14.2886 294.142 13.8246 294.859 13.3464C297 12.2527 297 12.2527 301 12.2527C300.424 15.6052 299.407 17.1909 296.938 19.5027C296.39 20.0235 295.842 20.5442 295.277 21.0808C294.856 21.4675 294.434 21.8542 294 22.2527C297.465 23.7377 297.465 23.7377 301 25.2527C301 26.2427 301 27.2327 301 28.2527C297.326 29.4284 293.831 29.3264 290 29.2527C290.33 30.2427 290.66 31.2327 291 32.2527C291.04 34.5857 291.044 36.9198 291 39.2527C288.525 39.7477 288.525 39.7477 286 40.2527C284.502 36.8817 284 35.0483 284 31.2527C283.408 31.6974 282.817 32.1421 282.207 32.6003C281.022 33.4492 281.022 33.4492 279.812 34.3152C278.647 35.1679 278.647 35.1679 277.457 36.0378C274.48 37.5097 273.113 37.2202 270 36.2527C271.269 32.3387 272.512 30.462 276 28.2527C275.175 27.8402 274.35 27.4277 273.5 27.0027C272.263 26.1364 272.263 26.1364 271 25.2527C271 23.9327 271 22.6127 271 21.2527C274.215 19.6454 277.436 20.1952 281 20.2527C280.835 19.5721 280.67 18.8914 280.5 18.1902C279.927 14.821 279.869 11.6645 280 8.25269C280.33 7.92269 280.66 7.59269 281 7.25269Z" fill="#D9B5B5"/>
<path d="M367.001 223.253C369.063 225.378 369.063 225.378 370.001 228.253C369.848 232.957 368.468 235.718 365.376 239.253C360.905 241.902 359.12 242.146 354.001 241.253C350.899 238.668 349.475 237.111 348.489 233.249C348.313 231.19 348.313 231.19 349.001 227.253C351.646 224.361 353.786 222.72 357.438 221.315C361.039 221.227 363.666 221.894 367.001 223.253ZM355.126 227.94C353.712 230.846 354.019 232.226 355.001 235.253C356.049 236.504 356.049 236.504 358.376 236.565C361.091 236.498 361.091 236.498 362.876 234.565C364.289 231.659 363.982 230.28 363.001 227.253C361.952 226.001 361.952 226.001 359.626 225.94C356.911 226.008 356.911 226.008 355.126 227.94Z" fill="#D9B5B5"/>
<path d="M73.0002 0.252632C74.9377 1.31513 74.9377 1.31513 76.0002 3.25263C76.5002 6.69013 76.5002 6.69013 76.0002 10.2526C73.9377 12.7526 73.9377 12.7526 71.0002 14.2526C67.4805 14.1919 65.0807 13.9149 62.0627 12.0651C60.4193 9.2617 60.4808 7.43388 61.0002 4.25263C64.5982 0.109493 67.6486 -0.441096 73.0002 0.252632ZM66.0002 4.25263C66.0002 5.57263 66.0002 6.89263 66.0002 8.25263C67.9802 8.74763 67.9802 8.74763 70.0002 9.25263C70.6602 7.93263 71.3202 6.61263 72.0002 5.25263C70.9337 3.9563 70.9337 3.9563 68.4377 4.19013C67.6333 4.21076 66.8289 4.23138 66.0002 4.25263Z" fill="#D9B5B5"/>
<path d="M289 355.253C291 355.21 293 355.212 295 355.253C296 356.253 296 356.253 296.125 359.253C296 362.253 296 362.253 295 363.253C293 363.294 291 363.295 289 363.253C287.875 357.503 287.875 357.503 289 355.253Z" fill="#D9B5B5"/>
</svg>
