<svg width="320" height="381" viewBox="0 0 320 381" fill="none" xmlns="http://www.w3.org/2000/svg">
<path d="M178.321 0.224513C180.909 1.28056 182.224 2.29732 184.321 4.22451C184.321 4.88451 184.321 5.54451 184.321 6.22451C185.407 6.27205 186.492 6.31958 187.611 6.36856C198.734 6.89632 209.716 7.93285 220.759 9.34951C222.016 9.50842 222.016 9.50842 223.298 9.67053C237.366 11.4582 251.382 13.5395 265.384 15.787C266.279 15.9286 267.174 16.0702 268.097 16.216C303.586 21.8627 303.586 21.8627 310.716 29.7714C313.73 34.0742 314.448 37.7137 314.454 42.8534C314.456 43.9717 314.457 45.0899 314.458 46.2421C314.454 47.4119 314.45 48.5817 314.446 49.787C314.45 50.9298 314.454 52.0725 314.458 53.2499C314.45 59.9705 314.155 66.5543 313.321 73.2245C313.961 73.3483 314.6 73.472 315.259 73.5995C315.94 73.8058 316.62 74.012 317.321 74.2245C321.334 82.2495 318.164 98.7418 316.321 107.225C314.997 109.682 314.997 109.682 313.321 111.225C312.001 111.225 310.681 111.225 309.321 111.225C309.333 111.923 309.345 112.622 309.357 113.342C309.37 114.707 309.37 114.707 309.384 116.1C309.396 117.004 309.407 117.909 309.419 118.842C309.321 121.225 309.321 121.225 308.321 123.225C309.971 123.885 311.621 124.545 313.321 125.225C313.929 152.796 313.929 152.796 309.935 159.58C308.321 161.225 308.321 161.225 305.321 162.225C302.916 170.121 302.34 178.507 301.37 186.683C298.889 207.535 295.942 228.308 292.833 249.075C292.438 251.715 292.045 254.355 291.651 256.996C276.071 361.484 276.071 361.484 266.071 372.6C265.551 373.205 265.03 373.811 264.493 374.435C256.188 381.277 247.852 380.861 237.634 380.725C236.825 380.719 236.016 380.713 235.183 380.708C193.801 380.379 105.08 378.521 73.7316 348.713C67.2653 340.972 66.7922 329.355 66.8839 319.725C66.8887 318.074 66.8887 318.074 66.8937 316.389C67.1847 297.622 69.4239 278.883 71.3214 260.225C65.997 266.541 60.9434 272.818 56.6964 279.912C56.234 280.68 55.7717 281.447 55.2953 282.238C45.5581 298.747 38.9498 317.14 35.7894 336.032C34.9592 340.608 34.2036 343.285 30.3214 346.225C22.8092 350.082 12.2932 350.536 4.19641 348.225C3.24766 347.895 2.29891 347.565 1.32141 347.225C1.42688 344.892 1.42688 344.892 2.32141 342.225C5.1222 340.713 5.1222 340.713 8.63391 339.537C14.1039 337.676 14.1039 337.676 19.3214 335.225C18.6872 334.884 18.053 334.544 17.3995 334.193C14.4592 331.408 14.3967 328.578 14.0714 324.725C13.997 323.948 13.9225 323.172 13.8458 322.373C9.91208 275.462 20.1738 231.098 43.3214 190.225C42.3952 189.515 42.3952 189.515 41.4503 188.791C25.7738 176.55 12.415 161.02 8.60266 140.822C6.70629 123.307 10.0508 107.54 20.6027 93.1034C23.3187 89.7672 26.0729 86.5064 29.0753 83.4237C30.6865 81.8079 30.6865 81.8079 32.3214 79.2245C31.6882 75.99 31.6882 75.99 30.3214 73.2245C30.6514 72.5645 30.9814 71.9045 31.3214 71.2245C29.8055 70.9461 29.8055 70.9461 28.2589 70.662C22.2839 68.9032 18.7373 64.6318 15.6534 59.3886C14.6327 57.468 13.6395 55.5323 12.6808 53.58C11.3982 50.9555 11.3982 50.9555 8.32141 49.2245C7.8097 47.3065 7.8097 47.3065 7.63391 45.037C7.53724 43.8421 7.53724 43.8421 7.4386 42.623C7.28503 39.4798 7.25447 36.3708 7.32141 33.2245C6.53766 33.1214 5.75391 33.0183 4.94641 32.912C2.32141 32.2245 2.32141 32.2245 0.321415 29.2245C-0.231945 22.2522 -0.231945 22.2522 1.63391 18.787C3.32141 17.2245 3.32141 17.2245 6.32141 16.2245C7.59557 14.4957 7.59557 14.4957 8.69641 12.412C12.2518 6.52144 16.2558 3.74567 22.7902 1.76358C30.0307 0.221617 36.8441 0.414341 43.3214 4.22451C44.9217 5.74184 46.4192 7.31989 47.9113 8.94326C49.8608 10.7146 51.7713 10.811 54.3214 11.2245C56.8057 13.5375 57.2806 14.8329 57.6339 18.2245C57.3214 21.2245 57.3214 21.2245 56.2589 23.0995C54.7419 26.5381 55.7119 29.5673 56.3214 33.2245C57.9714 33.5545 59.6214 33.8845 61.3214 34.2245C62.5089 36.912 62.5089 36.912 63.3214 40.2245C61.9464 42.7245 61.9464 42.7245 60.3214 45.2245C60.0701 48.4337 60.0701 48.4337 60.3214 51.2245C61.0845 51.1833 61.8477 51.142 62.6339 51.0995C65.3214 51.2245 65.3214 51.2245 68.3214 53.2245C68.3214 53.8845 68.3214 54.5445 68.3214 55.2245C69.1232 54.7656 69.925 54.3067 70.7511 53.8339C77.8618 49.9964 84.031 47.7112 92.0089 46.3495C97.4636 45.498 97.4636 45.498 101.919 42.5448C102.685 40.1132 102.963 37.7503 103.321 35.2245C104.142 32.5133 105.129 29.8723 106.134 27.2245C106.394 26.5291 106.654 25.8336 106.922 25.1171C109.972 17.1867 113.466 10.2325 121.321 6.22451C126.255 4.57554 130.567 3.96674 135.759 3.91592C137.163 3.89077 138.566 3.86537 139.97 3.83975C142.149 3.81103 144.327 3.78696 146.506 3.76821C148.632 3.74641 150.758 3.70699 152.884 3.66592C154.143 3.65246 155.403 3.63901 156.7 3.62515C164.565 2.75499 169.99 -0.938877 178.321 0.224513ZM115.321 15.2245C92.1414 46.3686 93.2255 110.585 88.3839 147.662C88.2284 148.845 88.073 150.027 87.9128 151.245C87.4719 154.611 87.0379 157.978 86.6066 161.346C86.4757 162.345 86.3448 163.344 86.2099 164.373C84.5436 173.196 84.5436 173.196 86.8527 181.221C87.5023 181.696 88.152 182.172 88.8214 182.662C89.7959 183.403 89.7959 183.403 90.7902 184.158C91.2955 184.51 91.8008 184.862 92.3214 185.225C94.1406 183.405 93.9062 180.557 94.226 178.096C94.311 177.451 94.396 176.807 94.4835 176.144C94.6694 174.731 94.8533 173.319 95.0356 171.906C95.3291 169.633 95.6277 167.361 95.9279 165.089C96.3579 161.833 96.7862 158.576 97.2134 155.32C111.235 48.5986 111.235 48.5986 121.321 22.2245C121.651 21.2345 121.981 20.2445 122.321 19.2245C129.643 14.4372 137.949 14.9512 146.321 15.2245C147.527 15.2615 147.527 15.2615 148.756 15.2992C151.404 15.386 154.05 15.4897 156.696 15.5995C157.54 15.6302 158.384 15.6609 159.254 15.6925C164.178 15.928 168.736 16.2666 173.321 18.2245C175.396 20.9745 175.396 20.9745 177.009 24.2245C179.563 29.4112 179.563 29.4112 184.321 32.2245C186.548 32.7462 186.548 32.7462 188.919 33.0409C189.798 33.1649 190.676 33.2889 191.581 33.4167C192.969 33.6 192.969 33.6 194.384 33.787C195.333 33.9163 196.281 34.0456 197.259 34.1789C216.5 37.8758 216.5 37.8758 234.321 33.2245C236.112 31.299 237.698 29.2993 239.321 27.2245C246.848 23.4612 259.014 26.4755 266.884 28.037C268.15 28.2849 268.15 28.2849 269.442 28.5377C274.927 29.7013 280.237 30.9243 284.134 35.2245C291.742 48.0384 285.825 73.2283 284.384 87.537C284.276 88.642 284.168 89.7469 284.056 90.8854C276.746 165.376 267.06 239.885 254.821 313.725C254.674 314.625 254.526 315.525 254.374 316.453C252.809 325.897 250.945 335.239 248.763 344.56C248.559 345.436 248.356 346.311 248.146 347.213C246.275 354.973 244.332 362.676 237.321 367.225C224.692 371.434 208.04 367.01 195.259 365.225C194.13 365.07 193.002 364.915 191.839 364.755C162.899 360.778 134.01 356.133 105.446 349.975C103.879 349.642 103.879 349.642 102.28 349.302C96.4191 347.971 91.6059 346.085 86.3214 343.225C85.3314 342.895 84.3414 342.565 83.3214 342.225C82.2589 340.037 82.2589 340.037 81.3214 337.225C80.9789 336.347 80.6364 335.47 80.2836 334.566C79.153 330.64 78.9672 327.001 78.9894 322.951C78.9925 322.101 78.9957 321.25 78.9989 320.374C79.2238 306.817 80.928 293.312 82.3915 279.845C82.7924 276.132 83.1801 272.419 83.5695 268.705C85.0962 254.207 86.6791 239.718 88.4423 225.247C89.0029 220.543 89.4853 215.972 89.3214 211.225C86.4154 209.968 84.5254 209.225 81.3214 209.225C78.7362 227.784 76.7922 246.39 74.9288 265.032C74.617 268.141 74.3016 271.25 73.9862 274.359C73.6777 277.401 73.371 280.444 73.0647 283.486C72.9208 284.916 72.7765 286.345 72.6318 287.775C68.2629 316.743 68.2629 316.743 75.3839 344.225C99.0636 371.531 180.347 373.083 214.118 375.693C232.196 377.198 232.196 377.198 248.618 370.803C259.611 360.616 261.486 344.042 264.177 330.053C264.307 329.38 264.436 328.707 264.57 328.013C267.338 313.608 269.668 299.145 271.83 284.636C272.142 282.544 272.456 280.453 272.77 278.362C281.401 220.822 288.357 163.098 294.321 105.225C294.446 104.02 294.57 102.816 294.698 101.575C297.57 74.5807 297.57 74.5807 298.759 47.4745C298.769 46.6107 298.78 45.7468 298.79 44.8568C298.709 39.3878 297.592 35.2145 295.321 30.2245C287.032 22.3717 272.246 21.1962 261.446 19.287C260.412 19.1005 260.412 19.1005 259.358 18.9102C224.481 12.3215 224.481 12.3215 189.196 10.162C187.278 10.193 187.278 10.193 185.321 10.2245C185.321 10.8845 185.321 11.5445 185.321 12.2245C182.321 11.2245 182.321 11.2245 180.321 9.22451C179.991 10.2145 179.661 11.2045 179.321 12.2245C178.661 12.2245 178.001 12.2245 177.321 12.2245C176.331 11.2345 176.331 11.2345 175.321 10.2245C174.991 11.2145 174.661 12.2045 174.321 13.2245C173.331 13.5545 172.341 13.8845 171.321 14.2245C170.331 12.2445 170.331 12.2445 169.321 10.2245C168.991 10.8845 168.661 11.5445 168.321 12.2245C166.259 12.8495 166.259 12.8495 164.321 13.2245C164.321 11.5745 164.321 9.92451 164.321 8.22451C156.932 7.38345 149.565 7.0922 142.134 7.03701C141.303 7.02412 140.473 7.01123 139.617 6.99795C130.196 6.98301 122.067 8.19611 115.321 15.2245ZM30.5714 15.162C29.4009 15.3567 28.2305 15.5513 27.0245 15.7519C25.6865 15.9858 25.6865 15.9858 24.3214 16.2245C24.3214 16.5545 24.3214 16.8845 24.3214 17.2245C30.3903 17.4774 35.4834 16.9228 41.3214 15.2245C37.5477 13.8888 34.4631 14.5004 30.5714 15.162ZM11.3214 16.2245C11.3214 16.5545 11.3214 16.8845 11.3214 17.2245C12.9714 17.2245 14.6214 17.2245 16.3214 17.2245C16.3214 16.8945 16.3214 16.5645 16.3214 16.2245C14.6714 16.2245 13.0214 16.2245 11.3214 16.2245ZM49.3214 16.2245C49.6514 18.5345 49.9814 20.8445 50.3214 23.2245C50.6514 23.2245 50.9814 23.2245 51.3214 23.2245C51.3214 21.2445 51.3214 19.2645 51.3214 17.2245C50.6614 16.8945 50.0014 16.5645 49.3214 16.2245ZM125.321 21.2245C121.043 26.8162 119.158 32.3374 117.767 39.1698C117.562 40.1262 117.356 41.0827 117.145 42.0681C114.782 53.3471 112.952 64.7129 111.196 76.0995C110.925 77.8506 110.925 77.8506 110.647 79.637C109.412 87.6162 108.207 95.5997 107.015 103.585C106.532 106.821 106.046 110.055 105.557 113.289C104.049 123.286 102.565 133.286 101.127 143.294C100.475 147.834 99.8144 152.372 99.1314 156.908C98.4846 161.209 97.8653 165.513 97.2664 169.82C97.0394 171.42 96.8027 173.019 96.556 174.616C96.2181 176.814 95.9153 179.014 95.6207 181.218C95.4414 182.456 95.262 183.694 95.0772 184.97C95.0202 188.419 95.0202 188.419 97.6765 191.065C99.7981 192.797 101.929 194.476 104.134 196.1C106.933 198.472 107.269 198.897 107.884 202.725C107.321 206.225 107.321 206.225 105.321 212.225C101.031 212.225 96.7414 212.225 92.3214 212.225C91.3248 220.633 90.3327 229.042 89.3476 237.452C88.8896 241.362 88.4298 245.271 87.9657 249.18C86.0605 265.235 84.2252 281.294 82.7583 297.396C82.6288 298.817 82.4974 300.238 82.3637 301.658C79.6093 320.593 79.6093 320.593 84.3214 338.225C89.0697 343.162 95.1438 344.951 101.568 346.689C102.359 346.905 103.15 347.122 103.966 347.344C112.177 349.533 120.454 351.143 128.821 352.6C129.625 352.742 130.428 352.885 131.256 353.032C184.729 366.435 184.729 366.435 237.509 363.975C243.847 357.777 245.492 349.23 247.153 340.807C247.407 339.526 247.407 339.526 247.665 338.219C250.151 325.285 252.036 312.246 253.977 299.222C254.327 296.876 254.678 294.53 255.03 292.184C262.975 239.127 270.418 185.984 276.884 132.725C277.121 130.777 277.121 130.777 277.363 128.789C279.06 114.793 280.61 100.788 281.974 86.7558C282.095 85.5081 282.217 84.2605 282.342 82.9751C286.319 58.8773 286.319 58.8773 281.321 36.2245C276.714 32.6043 272.499 31.1465 266.884 29.9745C266.1 29.8098 265.316 29.645 264.508 29.4752C257.186 28.0412 249.733 26.7985 242.321 28.2245C240.124 29.7716 238.956 31.0986 237.595 33.4003C235.816 35.948 234.142 36.9241 231.321 38.2245C215.669 40.0984 195.282 38.2032 180.321 33.2245C178.033 31.0629 176.707 28.8579 175.083 26.1894C174.646 25.4791 174.209 24.7688 173.759 24.037C173.366 23.3628 172.973 22.6887 172.568 21.994C170.799 19.483 169.044 18.355 166.028 17.8105C162.46 17.5504 158.896 17.3522 155.321 17.2245C154.377 17.1905 153.433 17.1565 152.46 17.1215C149.268 17.0232 146.077 16.9626 142.884 16.912C141.841 16.8822 140.799 16.8524 139.725 16.8217C133.769 16.7765 129.826 16.9104 125.321 21.2245ZM41.3214 18.2245C41.6514 20.8645 41.9814 23.5045 42.3214 26.2245C42.6514 26.2245 42.9814 26.2245 43.3214 26.2245C43.4882 23.308 43.4882 23.308 43.3214 20.2245C42.6614 19.5645 42.0014 18.9045 41.3214 18.2245ZM33.3214 21.2245C33.6514 23.5345 33.9814 25.8445 34.3214 28.2245C35.013 26.3773 35.013 26.3773 35.3214 24.2245C34.6614 23.2345 34.0014 22.2445 33.3214 21.2245ZM7.32141 22.2245C7.32141 24.8645 7.32141 27.5045 7.32141 30.2245C8.31141 30.7195 8.31141 30.7195 9.32141 31.2245C8.99141 28.2545 8.66141 25.2845 8.32141 22.2245C7.99141 22.2245 7.66141 22.2245 7.32141 22.2245ZM16.3214 22.2245C16.3214 25.1945 16.3214 28.1645 16.3214 31.2245C16.6514 31.2245 16.9814 31.2245 17.3214 31.2245C17.3214 28.2545 17.3214 25.2845 17.3214 22.2245C16.9914 22.2245 16.6614 22.2245 16.3214 22.2245ZM25.3214 22.2245C25.3214 24.8645 25.3214 27.5045 25.3214 30.2245C25.6514 30.2245 25.9814 30.2245 26.3214 30.2245C26.3214 27.5845 26.3214 24.9445 26.3214 22.2245C25.9914 22.2245 25.6614 22.2245 25.3214 22.2245ZM46.3214 29.2245C46.6514 30.2145 46.9814 31.2045 47.3214 32.2245C49.3014 31.8945 51.2814 31.5645 53.3214 31.2245C53.3214 29.9045 53.3214 28.5845 53.3214 27.2245C50.2159 27.2245 48.9688 27.7639 46.3214 29.2245ZM36.3214 32.2245C38.6314 32.2245 40.9414 32.2245 43.3214 32.2245C43.3214 31.5645 43.3214 30.9045 43.3214 30.2245C40.2159 30.2245 38.9688 30.7639 36.3214 32.2245ZM19.4464 33.2245C18.4719 33.3199 17.4974 33.4153 16.4933 33.5136C14.1024 33.748 11.7118 33.985 9.32141 34.2245C9.65141 35.2145 9.98141 36.2045 10.3214 37.2245C11.3172 37.298 11.3172 37.298 12.3331 37.373C19.8345 38.0081 19.8345 38.0081 23.1339 39.4745C25.3947 40.5311 25.3947 40.5311 27.7589 39.0995C28.6045 38.4808 29.4502 37.862 30.3214 37.2245C31.9611 36.1726 31.9611 36.1726 33.6339 35.0995C34.5208 34.4808 35.4077 33.862 36.3214 33.2245C36.3214 32.8945 36.3214 32.5645 36.3214 32.2245C30.6469 32.0717 25.0838 32.6593 19.4464 33.2245ZM49.3214 41.2245C47.7079 43.0406 46.1458 44.8825 44.6183 46.7714C42.8604 48.741 41.6994 49.1843 39.0792 49.4628C31.8998 49.6652 31.8998 49.6652 28.6964 47.2245C28.2427 46.5645 27.7889 45.9045 27.3214 45.2245C26.3314 45.7195 26.3314 45.7195 25.3214 46.2245C25.6514 48.5345 25.9814 50.8445 26.3214 53.2245C29.7864 52.7295 29.7864 52.7295 33.3214 52.2245C30.4871 55.4787 28.6353 56.7452 24.3214 57.2245C24.3214 54.2545 24.3214 51.2845 24.3214 48.2245C23.7645 48.6989 23.2077 49.1733 22.6339 49.662C20.1234 51.3583 18.272 51.7205 15.3214 52.2245C18.2693 59.3958 21.3001 64.5589 28.3214 68.2245C34.2356 70.0525 38.8764 68.8062 44.3214 66.2245C47.2342 64.4651 49.7805 62.4837 52.3214 60.2245C52.9376 59.687 53.5538 59.1494 54.1886 58.5956C56.6835 56.118 58.3 54.5052 58.3605 50.8847C58.0507 48.4891 58.0507 48.4891 57.4581 46.2401C57.413 45.575 57.3679 44.9098 57.3214 44.2245C58.798 42.6269 58.798 42.6269 60.3214 41.2245C60.091 38.5699 60.091 38.5699 59.3214 36.2245C54.415 36.2245 52.6325 37.9379 49.3214 41.2245ZM33.3214 41.2245C32.9914 42.2145 32.6614 43.2045 32.3214 44.2245C32.9814 44.8845 33.6414 45.5445 34.3214 46.2245C37.129 46.2245 38.7341 45.8007 40.7589 43.8144C41.9977 42.3257 43.1647 40.7778 44.3214 39.2245C43.9914 38.5645 43.6614 37.9045 43.3214 37.2245C38.6496 36.6906 36.6466 37.9917 33.3214 41.2245ZM13.3214 42.2245C12.9914 43.5445 12.6614 44.8645 12.3214 46.2245C14.65 47.4229 14.65 47.4229 17.3214 48.2245C18.3114 47.5645 19.3014 46.9045 20.3214 46.2245C20.3214 45.2345 20.3214 44.2445 20.3214 43.2245C18.0114 42.8945 15.7014 42.5645 13.3214 42.2245ZM67.3214 61.2245C68.3214 63.2245 68.3214 63.2245 68.3214 63.2245L67.3214 61.2245ZM66.3214 63.2245C65.6614 64.5445 65.0014 65.8645 64.3214 67.2245C65.3114 66.5645 66.3014 65.9045 67.3214 65.2245C66.9914 64.5645 66.6614 63.9045 66.3214 63.2245ZM62.3214 68.2245C61.3314 69.7095 61.3314 69.7095 60.3214 71.2245C61.3114 70.8945 62.3014 70.5645 63.3214 70.2245C62.9914 69.5645 62.6614 68.9045 62.3214 68.2245ZM308.321 76.2245C305.806 79.9974 305.632 83.4545 305.196 87.8495C305.11 88.6191 305.024 89.3887 304.935 90.1815C304.368 95.5541 304.246 100.823 304.321 106.225C305.311 106.555 306.301 106.885 307.321 107.225C307.377 106.499 307.432 105.773 307.489 105.025C307.743 101.716 308.001 98.4078 308.259 95.0995C308.389 93.3863 308.389 93.3863 308.523 91.6386C308.653 89.9757 308.653 89.9757 308.786 88.2792C308.904 86.7553 308.904 86.7553 309.024 85.2006C309.326 82.1775 309.789 79.2148 310.321 76.2245C309.661 76.2245 309.001 76.2245 308.321 76.2245ZM313.321 76.2245C309.27 86.218 310.193 97.6338 310.321 108.225C313.112 106.267 313.363 105.017 314.052 101.6C314.219 100.143 314.371 98.6843 314.509 97.2245C314.589 96.4679 314.67 95.7113 314.753 94.9318C315.342 89.0233 315.552 83.1612 315.321 77.2245C314.661 76.8945 314.001 76.5645 313.321 76.2245ZM49.3214 92.2245C50.3214 94.2245 50.3214 94.2245 50.3214 94.2245L49.3214 92.2245ZM50.3214 94.2245C51.3214 96.2245 51.3214 96.2245 51.3214 96.2245L50.3214 94.2245ZM51.3214 97.2245C52.3214 100.225 52.3214 100.225 52.3214 100.225L51.3214 97.2245ZM52.3214 101.225C53.3214 104.225 53.3214 104.225 53.3214 104.225L52.3214 101.225ZM53.3214 104.225C54.3214 108.225 54.3214 108.225 54.3214 108.225L53.3214 104.225ZM54.3214 109.225C55.3214 113.225 55.3214 113.225 55.3214 113.225L54.3214 109.225ZM55.3214 114.225C55.3214 115.875 55.3214 117.525 55.3214 119.225C55.6514 119.225 55.9814 119.225 56.3214 119.225C56.3214 117.575 56.3214 115.925 56.3214 114.225C55.9914 114.225 55.6614 114.225 55.3214 114.225ZM56.3214 119.225C56.3214 120.875 56.3214 122.525 56.3214 124.225C56.6514 124.225 56.9814 124.225 57.3214 124.225C57.3214 122.575 57.3214 120.925 57.3214 119.225C56.9914 119.225 56.6614 119.225 56.3214 119.225ZM57.3214 124.225C57.3214 125.875 57.3214 127.525 57.3214 129.225C57.6514 129.225 57.9814 129.225 58.3214 129.225C58.3214 127.575 58.3214 125.925 58.3214 124.225C57.9914 124.225 57.6614 124.225 57.3214 124.225ZM303.321 126.225C301.152 130.764 300.691 135.161 300.196 140.1C300.067 141.265 300.067 141.265 299.935 142.455C299.446 147.072 299.235 151.582 299.321 156.225C299.981 156.555 300.641 156.885 301.321 157.225C303.032 146.926 304.226 136.604 305.321 126.225C304.661 126.225 304.001 126.225 303.321 126.225ZM308.321 126.225C306.421 132.869 305.722 139.345 305.196 146.225C305.11 147.285 305.024 148.346 304.935 149.439C304.724 152.034 304.52 154.629 304.321 157.225C305.311 157.225 306.301 157.225 307.321 157.225C310.071 147.143 310.467 137.664 310.321 127.225C309.661 126.895 309.001 126.565 308.321 126.225ZM58.3214 129.225C59.3214 133.225 59.3214 133.225 59.3214 133.225L58.3214 129.225ZM59.3214 133.225C60.3214 137.225 60.3214 137.225 60.3214 137.225L59.3214 133.225ZM60.3214 137.225C61.3214 140.225 61.3214 140.225 61.3214 140.225L60.3214 137.225ZM61.3214 140.225C62.3214 143.225 62.3214 143.225 62.3214 143.225L61.3214 140.225ZM62.3214 143.225C63.3214 146.225 63.3214 146.225 63.3214 146.225L62.3214 143.225ZM63.3214 146.225C64.3214 149.225 64.3214 149.225 64.3214 149.225L63.3214 146.225ZM64.3214 149.225C65.3214 151.225 65.3214 151.225 65.3214 151.225L64.3214 149.225ZM65.3214 151.225C66.3214 153.225 66.3214 153.225 66.3214 153.225L65.3214 151.225ZM66.3214 153.225C67.3214 155.225 67.3214 155.225 67.3214 155.225L66.3214 153.225ZM67.3214 155.225C68.3214 157.225 68.3214 157.225 68.3214 157.225L67.3214 155.225ZM68.3214 157.225C69.3214 159.225 69.3214 159.225 69.3214 159.225L68.3214 157.225ZM69.3214 159.225C69.6514 160.215 69.9814 161.205 70.3214 162.225C70.3214 161.235 70.3214 160.245 70.3214 159.225C69.9914 159.225 69.6614 159.225 69.3214 159.225ZM71.3214 162.225C72.44 165.951 72.44 165.951 75.3214 168.225C74.2029 164.498 74.2029 164.498 71.3214 162.225ZM75.3214 168.225C75.9814 169.545 76.6414 170.865 77.3214 172.225C77.3214 171.235 77.3214 170.245 77.3214 169.225C76.6614 168.895 76.0014 168.565 75.3214 168.225ZM52.3214 195.225C53.3114 196.215 54.3014 197.205 55.3214 198.225C55.9814 197.895 56.6414 197.565 57.3214 197.225C54.8464 196.235 54.8464 196.235 52.3214 195.225ZM65.3214 202.225C65.9814 202.885 66.6414 203.545 67.3214 204.225C68.3114 203.895 69.3014 203.565 70.3214 203.225C68.6714 202.895 67.0214 202.565 65.3214 202.225Z" fill="#D9B5B5"/>
<path d="M215.321 132.225C222.997 138.653 225.281 145.964 226.196 155.662C226.565 161.71 226.101 167.447 225.071 173.412C224.95 174.118 224.829 174.825 224.704 175.553C223.9 179.646 222.693 182.793 220.321 186.225C211.843 185.725 203.822 184.194 195.571 182.225C194.288 181.921 193.005 181.618 191.683 181.306C181.806 178.94 172.018 176.282 162.259 173.475C161.591 173.285 160.923 173.094 160.235 172.898C158.333 172.354 156.434 171.798 154.536 171.24C153.455 170.923 152.373 170.607 151.259 170.28C148.333 169.229 145.921 167.916 143.321 166.225C149.078 134.311 149.078 134.311 160.321 126.225C175.976 115.73 200.878 123.164 215.321 132.225Z" fill="#D9B5B5"/>
<path d="M153.134 66.7872C153.974 66.8033 154.814 66.8194 155.679 66.836C180.334 67.5587 204.707 71.6461 229.03 75.4434C230.153 75.618 231.277 75.7926 232.434 75.9724C234.544 76.3011 236.652 76.6328 238.761 76.9683C244.544 77.8706 250.29 78.5413 256.128 78.9695C258.321 79.2247 258.321 79.2247 260.321 80.2247C261.23 127.385 250.509 190.663 227.321 232.225C226.991 232.555 226.661 232.885 226.321 233.225C217.477 233.067 208.751 231.628 200.071 230.037C198.865 229.818 197.658 229.599 196.415 229.373C176.47 225.66 156.041 221.279 137.056 213.967C133.907 213.112 132.734 213.389 129.759 214.6C122.175 217.196 114.095 217.006 106.321 215.225C106.953 210.172 108.456 205.929 110.321 201.225C112.301 201.555 114.281 201.885 116.321 202.225C115.661 201.235 115.001 200.245 114.321 199.225C114.698 195.607 115.907 192.2 116.982 188.735C120.141 178.514 122.32 168.202 124.353 157.709C124.714 155.878 125.076 154.047 125.439 152.216C126.384 147.438 127.32 142.659 128.254 137.879C129.745 130.248 131.247 122.619 132.755 114.991C133.271 112.37 133.781 109.749 134.291 107.127C136.021 98.2952 137.872 89.4939 139.886 80.7217C140.182 79.3857 140.182 79.3857 140.485 78.0226C142.437 69.7108 144.106 66.5219 153.134 66.7872ZM145.321 70.2247C144.033 75.8458 142.765 81.4712 141.509 87.0997C141.213 88.426 141.213 88.426 140.911 89.7792C138.23 101.857 135.758 113.962 133.485 126.123C133.248 127.393 133.01 128.663 132.765 129.972C131.595 136.255 130.44 142.54 129.304 148.83C123.391 181.161 123.391 181.161 118.084 192.98C116.97 195.642 116.97 195.642 118.321 200.225C123.271 199.235 123.271 199.235 128.321 198.225C126.321 202.225 126.321 202.225 124.321 204.225C131.1 208.945 138.061 211.536 145.884 214.1C146.533 214.314 147.182 214.528 147.851 214.749C172.114 222.711 199.705 230.689 225.321 230.225C246.149 184.564 254.741 131.911 258.321 82.2247C257.355 82.1046 256.388 81.9846 255.392 81.8609C234.158 79.216 212.965 76.374 191.804 73.1929C179.852 71.4004 168.309 70.062 156.196 70.1622C155.144 70.1667 154.093 70.1712 153.009 70.1758C150.446 70.1875 147.884 70.2038 145.321 70.2247Z" fill="#D9B5B5"/>
<path d="M128.447 243.912C129.254 243.918 130.061 243.923 130.893 243.929C150.592 244.297 170.185 247.212 189.634 250.162C190.443 250.283 191.252 250.404 192.085 250.529C200.657 251.823 209.161 253.298 217.615 255.229C218.303 255.382 218.992 255.536 219.701 255.694C226.501 257.314 231.347 259.336 235.322 265.225C240.14 279.681 235.893 298.437 233.572 313.162C233.445 313.984 233.319 314.807 233.189 315.654C229.595 338.717 229.595 338.717 223.259 344.287C208.32 354.14 180.556 345.568 163.776 342.822C160.918 342.359 158.057 341.911 155.195 341.464C142.706 339.513 130.222 337.498 117.802 335.147C117.039 335.01 116.276 334.873 115.49 334.731C109.566 333.558 103.601 331.652 99.384 327.162C94.0037 317.351 97.6031 301.232 98.8657 290.461C99.1342 288.161 99.386 285.86 99.636 283.559C100.442 276.33 101.392 269.133 102.708 261.979C102.921 260.818 103.133 259.657 103.352 258.461C104.888 253.334 107.572 248.863 112.322 246.225C117.762 244.639 122.765 243.868 128.447 243.912ZM110.384 251.537C106.255 256.917 105.667 262.544 104.822 269.1C104.695 270.064 104.568 271.029 104.438 272.023C102.649 286.048 101.241 300.145 100.884 314.287C100.85 315.007 100.815 315.726 100.78 316.468C100.746 320.579 101.398 323.876 104.291 326.925C112.803 332.375 126.263 333.238 136.005 334.733C137.358 334.946 138.711 335.159 140.063 335.374C142.872 335.817 145.681 336.255 148.491 336.689C152.043 337.238 155.593 337.795 159.144 338.356C190.837 345.774 190.837 345.774 221.322 341.225C224.684 336.969 226.256 332.907 227.322 327.662C227.481 326.906 227.641 326.149 227.805 325.369C230.936 309.793 233.63 293.704 233.759 277.787C233.769 277.091 233.779 276.395 233.789 275.678C233.71 271.175 232.729 268.019 230.322 264.225C221.731 256.248 203.228 255.881 191.947 254.162C191.124 254.035 190.302 253.907 189.455 253.776C148.454 244.338 148.454 244.338 110.384 251.537Z" fill="#D9B5B5"/>
<path d="M204.458 84.9434C209.598 87.7086 212.478 91.1359 214.634 96.4747C215.72 102.402 215.429 107.091 212.634 112.475C208.871 116.949 205.187 120.744 199.122 121.498C192.504 121.768 188.393 120.523 183.321 116.225C178.296 110.813 177.966 106.332 178.044 99.17C178.556 93.7283 181.477 90.8614 185.384 87.4122C190.797 83.381 198.035 82.7828 204.458 84.9434Z" fill="#D9B5B5"/>
<path d="M139.822 48.0372C140.632 48.0365 141.443 48.0359 142.278 48.0352C148.14 48.0868 153.656 48.6304 159.322 50.2247C159.884 52.1622 159.884 52.1622 160.322 54.2247C159.322 55.2247 159.322 55.2247 156.913 55.2464C155.871 55.1993 154.829 55.1521 153.755 55.1036C152.63 55.0552 151.506 55.0069 150.347 54.9571C148.571 54.873 148.571 54.873 146.759 54.7872C145.571 54.735 144.383 54.6827 143.159 54.629C140.213 54.4988 137.267 54.3638 134.322 54.2247C134.198 55.3513 134.074 56.4779 133.947 57.6387C133.355 62.362 132.376 66.961 131.322 71.5997C131.144 72.4053 130.966 73.211 130.782 74.0411C129.454 79.9597 129.454 79.9598 128.322 82.2247C127.002 81.8947 125.682 81.5647 124.322 81.2247C123.866 71.2279 123.78 58.0453 129.322 49.2247C132.603 47.5841 136.218 48.0343 139.822 48.0372Z" fill="#D9B5B5"/>
<path d="M249.321 215.225C250.311 215.555 251.301 215.885 252.321 216.225C252.29 223.381 250.755 229.839 248.571 236.6C248.331 237.372 248.091 238.145 247.844 238.941C246.224 243.743 244.571 247.177 240.321 250.225C234.785 250.959 229.515 249.601 224.134 248.35C223.34 248.176 222.547 248.002 221.729 247.822C217.966 246.969 214.743 246.055 211.321 244.225C211.321 243.565 211.321 242.905 211.321 242.225C217.149 240.743 222.368 241.734 228.196 242.662C229.658 242.884 229.658 242.884 231.149 243.109C233.541 243.473 235.932 243.845 238.321 244.225C238.496 243.614 238.67 243.003 238.85 242.373C240.609 236.347 242.641 230.5 244.946 224.662C245.258 223.857 245.57 223.052 245.892 222.223C248.188 216.358 248.188 216.358 249.321 215.225Z" fill="#D9B5B5"/>
<path d="M202.759 264.225C205.341 265.232 206.618 265.278 209.321 265.162C213.137 265.069 215.301 265.737 218.321 268.225C220.888 271.646 220.686 275.071 220.321 279.225C218.907 282.681 217.664 283.991 214.571 286.1C209.915 287.711 206.396 287.076 201.884 285.225C199.47 284.282 197.805 284.047 195.259 283.85C191.03 283.178 189.85 282.562 187.321 279.225C185.789 276.16 186.092 273.608 186.321 270.225C187.576 267.402 188.605 265.762 191.071 263.912C195.096 262.682 198.851 262.621 202.759 264.225ZM190.884 267.787C188.701 271.192 188.684 273.259 189.321 277.225C191.872 280.067 193.311 281.135 197.134 281.475C198.217 281.351 198.217 281.351 199.321 281.225C199.28 280.028 199.239 278.832 199.196 277.6C199.183 273.801 199.901 270.775 201.321 267.225C200.164 265.855 200.164 265.855 197.009 265.912C193.36 265.933 193.36 265.933 190.884 267.787ZM206.321 268.225C206.383 270.019 206.383 270.019 206.446 271.85C206.46 275.648 205.742 278.674 204.321 282.225C206.678 283.709 208.007 284.24 210.821 284.1C213.998 282.988 215.365 281.978 217.321 279.225C217.884 275.285 217.925 273.167 215.759 269.787C212.503 267.7 210.112 267.933 206.321 268.225ZM202.321 271.225C201.991 273.535 201.661 275.845 201.321 278.225C201.981 278.225 202.641 278.225 203.321 278.225C203.651 275.915 203.981 273.605 204.321 271.225C203.661 271.225 203.001 271.225 202.321 271.225Z" fill="#D9B5B5"/>
<path d="M132.696 254.475C134.003 254.542 135.311 254.609 136.657 254.678C140.397 255.236 142.473 255.745 145.321 258.225C146.586 263.857 145.594 269.969 143.321 275.225C135.453 276.692 128.963 275.522 121.321 273.225C119.539 271.442 120.149 268.882 120.134 266.475C120.12 265.428 120.105 264.381 120.091 263.303C120.327 260.151 120.819 257.999 122.321 255.225C126.012 253.994 128.815 254.246 132.696 254.475ZM125.321 257.225C124.661 258.875 124.001 260.525 123.321 262.225C125.667 262.994 125.667 262.994 128.321 263.225C128.796 262.75 129.27 262.276 129.759 261.787C131.321 260.225 131.321 260.225 134.509 260.037C135.901 260.13 135.901 260.13 137.321 260.225C137.981 261.545 138.641 262.865 139.321 264.225C140.311 264.225 141.301 264.225 142.321 264.225C142.651 263.235 142.981 262.245 143.321 261.225C141.569 258.985 140.482 258.266 137.696 257.537C133.557 257.154 129.474 257.141 125.321 257.225ZM131.321 262.225C131.321 263.545 131.321 264.865 131.321 266.225C132.641 266.225 133.961 266.225 135.321 266.225C134.991 264.905 134.661 263.585 134.321 262.225C133.331 262.225 132.341 262.225 131.321 262.225ZM123.321 265.225C123.321 266.875 123.321 268.525 123.321 270.225C127.149 271.971 130.446 272.573 134.634 272.85C136.237 272.962 136.237 272.962 137.872 273.076C138.68 273.125 139.489 273.174 140.321 273.225C140.981 271.245 141.641 269.265 142.321 267.225C140.655 267.182 138.988 267.184 137.321 267.225C136.991 267.555 136.661 267.885 136.321 268.225C131.602 268.654 129.221 267.824 125.321 265.225C124.661 265.225 124.001 265.225 123.321 265.225Z" fill="#D9B5B5"/>
<path d="M245.321 62.2245C248.863 62.1661 252.404 62.1308 255.946 62.0995C256.945 62.0828 257.944 62.066 258.974 62.0488C269.17 61.9812 269.17 61.9812 273.321 64.2245C276.17 68.4542 275.38 73.2363 275.009 78.0995C274.96 78.8769 274.912 79.6542 274.862 80.455C274.555 85.0863 274.037 89.639 273.321 94.2245C272.001 94.2245 270.681 94.2245 269.321 94.2245C268.826 82.3445 268.826 82.3445 268.321 70.2245C261.501 68.9499 261.501 68.9499 254.679 67.6818C253.831 67.5219 252.984 67.362 252.11 67.1972C251.241 67.0349 250.372 66.8725 249.476 66.7053C247.321 66.2245 247.321 66.2245 245.321 65.2245C245.321 64.2345 245.321 63.2445 245.321 62.2245Z" fill="#D9B5B5"/>
<path d="M114.134 282.975C123.294 283.019 132.31 284.717 141.321 286.225C142.121 289.512 142.418 290.935 141.321 294.225C133.587 294.649 126.274 293.94 118.634 292.787C117.736 292.653 116.839 292.518 115.914 292.38C109.457 291.361 109.457 291.361 108.321 290.225C108.196 287.225 108.196 287.225 108.321 284.225C109.978 282.568 111.846 283.013 114.134 282.975ZM111.321 286.225C111.321 286.885 111.321 287.545 111.321 288.225C114.695 288.732 118.071 289.229 121.446 289.725C122.873 289.939 122.873 289.939 124.329 290.158C129.033 290.844 133.552 291.417 138.321 291.225C138.321 290.235 138.321 289.245 138.321 288.225C129.284 287.051 120.455 285.935 111.321 286.225Z" fill="#D9B5B5"/>
<path d="M191.321 317.225C191.651 318.215 191.981 319.205 192.321 320.225C192.948 320.129 193.574 320.034 194.22 319.936C195.446 319.769 195.446 319.769 196.696 319.6C197.914 319.426 197.914 319.426 199.157 319.248C199.871 319.24 200.586 319.233 201.321 319.225C201.981 319.885 202.641 320.545 203.321 321.225C205.321 321.268 207.322 321.265 209.321 321.225C210.002 321.452 210.683 321.678 211.384 321.912C214.323 322.386 215.866 320.76 218.321 319.225C219.641 319.225 220.961 319.225 222.321 319.225C220.872 322.821 219.094 324.413 215.884 326.537C215.101 327.07 214.319 327.602 213.513 328.151C211.321 329.225 211.321 329.225 208.321 328.225C208.321 327.235 208.321 326.245 208.321 325.225C207.558 325.72 206.795 326.215 206.009 326.725C203.321 328.225 203.321 328.225 200.321 328.225C200.321 326.575 200.321 324.925 200.321 323.225C199.414 323.534 198.506 323.843 197.571 324.162C192.492 325.823 192.492 325.823 190.321 326.225C189.321 325.225 189.321 325.225 189.259 322.662C189.279 321.858 189.3 321.053 189.321 320.225C188.382 320.766 188.382 320.766 187.423 321.318C186.606 321.783 185.788 322.247 184.946 322.725C183.728 323.421 183.728 323.421 182.485 324.131C180.321 325.225 180.321 325.225 178.321 325.225C178.446 323.475 178.446 323.475 179.321 321.225C183.368 317.837 186.057 316.723 191.321 317.225Z" fill="#D9B5B5"/>
<path d="M177.446 290.975C182.928 291.014 195.388 291.292 199.321 295.225C199.509 297.662 199.509 297.662 199.321 300.225C197.321 302.225 197.321 302.225 194.923 302.271C174.313 300.216 174.313 300.216 171.321 297.225C171.938 292.169 172.404 291.074 177.446 290.975ZM175.321 293.225C175.321 294.215 175.321 295.205 175.321 296.225C182.303 297.785 189.187 298.709 196.321 299.225C195.991 298.235 195.661 297.245 195.321 296.225C188.721 295.235 182.121 294.245 175.321 293.225Z" fill="#D9B5B5"/>
<path d="M149.509 286.975C156.686 287.009 163.382 288.5 170.321 290.225C170.321 292.535 170.321 294.845 170.321 297.225C164.641 298.638 159.681 297.777 154.009 296.85C153.09 296.71 152.172 296.571 151.226 296.428C144.465 295.368 144.465 295.368 143.321 294.225C143.196 291.225 143.196 291.225 143.321 288.225C145.03 286.516 147.172 287.012 149.509 286.975ZM147.321 289.225C146.991 290.215 146.661 291.205 146.321 292.225C153.303 293.784 160.187 294.709 167.321 295.225C167.321 294.235 167.321 293.245 167.321 292.225C160.721 291.235 154.121 290.245 147.321 289.225Z" fill="#D9B5B5"/>
<path d="M200.321 15.2246C202.321 16.2871 202.321 16.2871 203.321 18.2246C203.952 24.1115 203.952 24.1115 202.259 27.0996C199.276 28.8318 196.745 29.1044 193.321 29.2246C190.884 28.2871 190.884 28.2871 189.321 26.2246C188.67 22.6627 188.689 19.4895 190.321 16.2246C193.58 14.5952 196.76 14.6978 200.321 15.2246Z" fill="#D9B5B5"/>
<path d="M138.321 184.225C144.59 184.878 150.325 186.64 156.321 188.537C164.415 191.068 172.492 193.379 180.751 195.303C181.599 195.607 182.447 195.911 183.321 196.225C183.816 197.71 183.816 197.71 184.321 199.225C176.517 198.768 169.375 197.087 161.884 194.912C160.829 194.616 159.774 194.32 158.687 194.016C151.779 192.048 145.036 189.772 138.321 187.225C138.321 186.235 138.321 185.245 138.321 184.225Z" fill="#D9B5B5"/>
<path d="M201.321 295.225C209.332 294.912 218.459 294.65 225.321 299.225C225.571 301.787 225.571 301.787 225.321 304.225C224.991 304.555 224.661 304.885 224.321 305.225C216.478 305.085 208.908 304.187 201.321 302.225C200.196 297.475 200.196 297.475 201.321 295.225ZM203.321 298.225C203.651 298.885 203.981 299.545 204.321 300.225C207.19 300.922 207.19 300.922 210.571 301.35C211.711 301.517 212.85 301.685 214.024 301.857C216.832 302.17 219.501 302.299 222.321 302.225C222.321 301.565 222.321 300.905 222.321 300.225C215.943 299.052 209.818 297.929 203.321 298.225Z" fill="#D9B5B5"/>
<path d="M242.321 87.2246C248.921 87.8246 248.921 87.8246 251.321 90.2246C251.639 95.0739 251.702 98.8592 249.321 103.225C246.339 104.716 243.605 104.344 240.321 104.225C238.77 102.673 239.152 101.187 239.134 99.0371C239.172 94.9974 239.292 90.2537 242.321 87.2246ZM244.321 92.2246C243.991 94.5346 243.661 96.8446 243.321 99.2246C244.311 99.2246 245.301 99.2246 246.321 99.2246C246.651 96.9146 246.981 94.6046 247.321 92.2246C246.331 92.2246 245.341 92.2246 244.321 92.2246Z" fill="#D9B5B5"/>
<path d="M181.321 188.225C186.728 188.026 191.414 188.716 196.661 189.975C197.428 190.152 198.195 190.33 198.985 190.513C201.412 191.076 203.835 191.65 206.259 192.225C207.913 192.611 209.567 192.996 211.222 193.381C215.257 194.321 219.29 195.27 223.321 196.225C223.321 197.215 223.321 198.205 223.321 199.225C218.371 199.372 214.066 198.9 209.251 197.764C208.607 197.613 207.963 197.462 207.299 197.307C205.949 196.99 204.599 196.669 203.25 196.344C201.197 195.85 199.14 195.368 197.083 194.889C186.171 192.31 186.171 192.31 181.321 190.225C181.321 189.565 181.321 188.905 181.321 188.225Z" fill="#D9B5B5"/>
<path d="M141.321 176.225C148.38 176.866 154.956 178.588 161.759 180.537C162.859 180.833 163.959 181.129 165.093 181.434C166.136 181.732 167.18 182.03 168.255 182.338C169.204 182.604 170.154 182.87 171.132 183.144C173.321 184.225 173.321 184.225 174.138 186.343C174.198 186.964 174.259 187.585 174.321 188.225C167.369 186.957 160.643 185.279 153.884 183.225C153 182.964 152.116 182.704 151.206 182.436C150.358 182.18 149.511 181.925 148.638 181.662C147.879 181.434 147.121 181.206 146.339 180.971C144.321 180.225 144.321 180.225 141.321 178.225C141.321 177.565 141.321 176.905 141.321 176.225Z" fill="#D9B5B5"/>
<path d="M172.321 204.225C179.912 204.731 187.033 206.174 194.384 208.1C195.949 208.484 195.949 208.484 197.546 208.877C198.535 209.133 199.525 209.39 200.544 209.654C201.439 209.884 202.333 210.113 203.255 210.349C204.278 210.782 204.278 210.782 205.321 211.225C205.816 212.71 205.816 212.71 206.321 214.225C198.494 213.763 191.245 212.444 183.696 210.35C182.209 209.965 182.209 209.965 180.692 209.572C179.753 209.316 178.813 209.059 177.845 208.795C176.575 208.451 176.575 208.451 175.28 208.1C174.633 207.811 173.987 207.522 173.321 207.225C172.991 206.235 172.661 205.245 172.321 204.225Z" fill="#D9B5B5"/>
<path d="M135.321 194.225C142.451 194.839 148.986 196.723 155.821 198.787C157.484 199.281 157.484 199.281 159.181 199.785C161.896 200.593 164.609 201.406 167.321 202.225C167.321 203.215 167.321 204.205 167.321 205.225C160.534 204.667 154.44 203.305 147.946 201.287C146.614 200.89 146.614 200.89 145.255 200.484C141.514 199.344 138.605 198.414 135.321 196.225C135.321 195.565 135.321 194.905 135.321 194.225Z" fill="#D9B5B5"/>
<path d="M263.321 36.2246C266.36 36.4668 266.36 36.4668 269.946 37.0996C271.729 37.4051 271.729 37.4051 273.548 37.7168C274.463 37.8844 275.378 38.052 276.321 38.2246C277.438 41.9434 277.438 41.9434 276.384 44.4746C276.033 45.0521 275.683 45.6296 275.321 46.2246C270.101 46.4046 266.249 46.1956 261.321 44.2246C261.196 41.3496 261.196 41.3496 261.321 38.2246C261.981 37.5646 262.641 36.9046 263.321 36.2246ZM269.321 40.2246C269.321 41.2146 269.321 42.2046 269.321 43.2246C270.971 42.8946 272.621 42.5646 274.321 42.2246C273.991 41.5646 273.661 40.9046 273.321 40.2246C272.001 40.2246 270.681 40.2246 269.321 40.2246Z" fill="#D9B5B5"/>
<path d="M111.321 304.225C120.989 303.713 134.438 303.783 143.321 308.225C142.991 309.215 142.661 310.205 142.321 311.225C127.471 309.245 127.471 309.245 112.321 307.225C111.991 306.235 111.661 305.245 111.321 304.225Z" fill="#D9B5B5"/>
<path d="M112.321 309.225C120.109 309.741 127.671 310.673 135.321 312.225C135.321 313.545 135.321 314.865 135.321 316.225C128.061 315.235 120.801 314.245 113.321 313.225C112.991 311.905 112.661 310.585 112.321 309.225Z" fill="#D9B5B5"/>
<path d="M191.321 198.225C193.99 198.822 196.656 199.427 199.321 200.037C200.065 200.203 200.809 200.368 201.575 200.539C206.685 201.716 211.446 203.291 216.321 205.225C216.321 205.885 216.321 206.545 216.321 207.225C210.583 207.521 205.965 206.505 200.509 204.787C199.746 204.557 198.984 204.327 198.198 204.09C192.693 202.411 192.693 202.411 190.321 201.225C190.651 200.235 190.981 199.245 191.321 198.225Z" fill="#D9B5B5"/>
<path d="M213.321 20.2246C216.946 20.5996 216.946 20.5996 220.321 21.2246C221.653 26.672 221.653 26.672 220.196 29.0996C217.689 30.6042 216.2 30.6564 213.321 30.2246C211.446 29.0371 211.446 29.0371 210.321 27.2246C210.566 23.8827 210.927 22.6192 213.321 20.2246Z" fill="#D9B5B5"/>
<path d="M233.321 86.2246C234.641 86.2246 235.961 86.2246 237.321 86.2246C238.818 91.9131 237.656 96.6427 236.321 102.225C235.331 102.555 234.341 102.885 233.321 103.225C232.661 102.895 232.001 102.565 231.321 102.225C231.462 100.12 231.609 98.016 231.759 95.9121C231.84 94.7404 231.921 93.5686 232.005 92.3613C232.321 89.2246 232.321 89.2246 233.321 86.2246Z" fill="#D9B5B5"/>
<path d="M38.3213 53.2246C39.3113 53.5546 40.3013 53.8846 41.3213 54.2246C42.0088 57.5371 42.0088 57.5371 42.3213 61.2246C41.0088 63.1621 41.0088 63.1621 39.3213 64.2246C38.6613 64.2246 38.0013 64.2246 37.3213 64.2246C37.6513 62.5746 37.9813 60.9246 38.3213 59.2246C35.8463 60.7096 35.8463 60.7096 33.3213 62.2246C32.9913 61.2346 32.6613 60.2446 32.3213 59.2246C34.3213 57.2246 36.3213 55.2246 38.3213 53.2246Z" fill="#D9B5B5"/>
<path d="M131.321 22.2246C136.698 22.5715 136.698 22.5715 139.321 23.2246C141.339 25.747 141.321 26.9756 141.321 30.2246C139.671 29.8946 138.021 29.5646 136.321 29.2246C136.321 28.2346 136.321 27.2446 136.321 26.2246C135.661 26.2246 135.001 26.2246 134.321 26.2246C134.321 27.2146 134.321 28.2046 134.321 29.2246C133.001 28.5646 131.681 27.9046 130.321 27.2246C130.651 25.5746 130.981 23.9246 131.321 22.2246Z" fill="#D9B5B5"/>
<path d="M156.321 258.225C157.641 258.555 158.961 258.885 160.321 259.225C161.418 265.169 161.732 268.905 158.321 274.225C157.661 274.225 157.001 274.225 156.321 274.225C156.405 273.405 156.489 272.585 156.575 271.74C156.677 270.663 156.779 269.585 156.884 268.475C156.988 267.407 157.093 266.34 157.2 265.24C157.307 262.583 157.141 260.725 156.321 258.225Z" fill="#D9B5B5"/>
<path d="M255.321 33.2246C256.641 33.2246 257.961 33.2246 259.321 33.2246C258.991 36.5246 258.661 39.8246 258.321 43.2246C257.001 42.8946 255.681 42.5646 254.321 42.2246C254.651 39.2546 254.981 36.2846 255.321 33.2246Z" fill="#D9B5B5"/>
<path d="M153.321 260.225C154.311 260.555 155.301 260.885 156.321 261.225C156.348 262.683 156.368 264.141 156.384 265.6C156.395 266.412 156.407 267.224 156.419 268.061C156.321 270.225 156.321 270.225 155.321 272.225C154.331 271.895 153.341 271.565 152.321 271.225C152.651 267.595 152.981 263.965 153.321 260.225Z" fill="#D9B5B5"/>
<path d="M159.321 23.2246C161.796 23.7196 161.796 23.7196 164.321 24.2246C164.321 26.2046 164.321 28.1846 164.321 30.2246C163.331 30.5546 162.341 30.8846 161.321 31.2246C160.065 28.3186 159.321 26.4286 159.321 23.2246Z" fill="#D9B5B5"/>
<path d="M247.321 34.2246C248.641 34.2246 249.961 34.2246 251.321 34.2246C251.321 36.5346 251.321 38.8446 251.321 41.2246C250.001 41.2246 248.681 41.2246 247.321 41.2246C247.321 38.9146 247.321 36.6046 247.321 34.2246Z" fill="#D9B5B5"/>
<path d="M152.321 23.2246C154.796 23.7196 154.796 23.7196 157.321 24.2246C157.981 26.2046 158.641 28.1846 159.321 30.2246C157.671 29.8946 156.021 29.5646 154.321 29.2246C153.661 27.2446 153.001 25.2646 152.321 23.2246Z" fill="#D9B5B5"/>
<path d="M149.321 262.225C150.311 262.225 151.301 262.225 152.321 262.225C152.321 264.205 152.321 266.185 152.321 268.225C151.331 268.555 150.341 268.885 149.321 269.225C149.321 266.915 149.321 264.605 149.321 262.225Z" fill="#D9B5B5"/>
<path d="M242.321 35.2246C242.981 35.2246 243.641 35.2246 244.321 35.2246C244.321 37.2046 244.321 39.1846 244.321 41.2246C243.331 41.2246 242.341 41.2246 241.321 41.2246C241.279 39.5585 241.281 37.8908 241.321 36.2246C241.651 35.8946 241.981 35.5646 242.321 35.2246Z" fill="#D9B5B5"/>
<path d="M38.3213 39.2246C39.3113 39.5546 40.3013 39.8846 41.3213 40.2246C40.9913 41.2146 40.6613 42.2046 40.3213 43.2246C39.6613 43.2246 39.0013 43.2246 38.3213 43.2246C38.3213 41.9046 38.3213 40.5846 38.3213 39.2246Z" fill="#D9B5B5"/>
<path d="M144.321 27.2246C145.641 27.2246 146.961 27.2246 148.321 27.2246C147.991 28.2146 147.661 29.2046 147.321 30.2246C146.331 29.8946 145.341 29.5646 144.321 29.2246C144.321 28.5646 144.321 27.9046 144.321 27.2246Z" fill="#D9B5B5"/>
<path d="M17.3213 43.2246C17.9813 43.5546 18.6413 43.8846 19.3213 44.2246C19.3213 44.8846 19.3213 45.5446 19.3213 46.2246C18.3313 46.2246 17.3413 46.2246 16.3213 46.2246C16.6513 45.2346 16.9813 44.2446 17.3213 43.2246Z" fill="#D9B5B5"/>
<path d="M145.321 23.2246C145.981 23.2246 146.641 23.2246 147.321 23.2246C147.321 24.2146 147.321 25.2046 147.321 26.2246C146.331 25.8946 145.341 25.5646 144.321 25.2246C144.651 24.5646 144.981 23.9046 145.321 23.2246Z" fill="#D9B5B5"/>
</svg>
